<svg id="Режим_изоляции" data-name="Режим изоляции" xmlns="http://www.w3.org/2000/svg" viewBox="0 0 23.3 60.18"><defs><style>.cls-1{fill:#ff6e3b;}</style></defs><path class="cls-1" d="M41.5,47.63a1.52,1.52,0,0,0-1.28-.71H31.58V11.8a1.5,1.5,0,1,0-3,0V46.92H19.94a1.52,1.52,0,0,0-1.5,1.52,1.43,1.43,0,0,0,.15.64L28.74,69.64a1.5,1.5,0,0,0,1.34.84,1.54,1.54,0,0,0,1.35-.84L41.57,49.13A1.49,1.49,0,0,0,41.5,47.63ZM28.58,49.92V62.55L22.35,49.92Zm3,12.63V49.92h6.23Z" transform="translate(-18.44 -10.3)"/></svg>