<svg data-name="Layer 1" xmlns="http://www.w3.org/2000/svg" viewBox="0 0 89.87 88.13"><path d="M2.94 87.86l13.5-12.67a1 1 0 00-.2-1.61l-6.72-3.69c14.74-41 79.05-67.68 79.74-68a1 1 0 10-.75-1.85 232.88 232.88 0 00-38.57 21.27C34.2 32.12 15.19 48.63 7.74 68.92l-2.21-1.21a1.012 1.012 0 00-1 1.76l2.5 1.37a54 54 0 00-1.6 6c-.09.49-.19 1-.27 1.49a1 1 0 00.82 1.15 1 1 0 001.15-.82q.12-.72.27-1.44a50.36 50.36 0 011.42-5.43l5.2 2.85-11 10.27-1.1-18.82a1 1 0 00-1.06-.94 1 1 0 00-.92.8 1.06 1.06 0 000 .25l1.23 20.95a1 1 0 001.69.68z" fill="#f36d3f"/></svg>