<svg id="Layer_1" data-name="Layer 1" xmlns="http://www.w3.org/2000/svg" viewBox="0 0 89.87 88.13"><defs><style>.cls-1{fill:#f36d3f;}</style></defs><path class="cls-1" d="M176,188.32l13.5-12.67a1,1,0,0,0-.2-1.61l-6.72-3.69c14.74-41,79.05-67.68,79.74-68a1,1,0,1,0-.75-1.85A232.88,232.88,0,0,0,223,121.77c-15.74,10.81-34.75,27.32-42.2,47.61l-2.21-1.21a1,1,0,0,0-1,1.76l2.5,1.37a54,54,0,0,0-1.6,6c-.09.49-.19,1-.27,1.49a1,1,0,0,0,.82,1.15,1,1,0,0,0,1.15-.82q.12-.72.27-1.44a50.36,50.36,0,0,1,1.42-5.43l5.2,2.85-11,10.27-1.1-18.82a1,1,0,0,0-1.06-.94,1,1,0,0,0-.92.8,1.06,1.06,0,0,0,0,.25l1.23,20.95a1,1,0,0,0,1.69.68Z" transform="translate(-173.06 -100.46)"/></svg>