<svg xmlns="http://www.w3.org/2000/svg" viewBox="0 0 85.17 86.17"><path d="M78.65 36.8c-12.17 1-24.45 1.55-36.65 1.81-12.18.1-24.47.7-36.51-1.48-7-.94-9 11.06 4.1 8.73 22.6.42 46.54 2.07 69.14 3.22 8.66.46 8.52-12.86-.08-12.28zM59.58 12.13q9.45 0 18.78.15c8-.55 7.23-12.75-.77-12.27C53.26 1.57 29.06 4.76 4.68 3.38c-18.57 9.52 51.33 8.63 54.9 8.75zM78.02 77.8c-12.26-.35-24.3-1.16-36.45-2.67s-24.48-2.41-36.5.16c-13.13 9 21.79 11.79 26.64 10.62 12.18-1.49 24.56-1.26 36.82-1.29 3.08 0 6.16 0 9.25.06 4.48.22 4.68-6.79.24-6.88z" fill="#ff6e34"/></svg>