<svg id="Icons" xmlns="http://www.w3.org/2000/svg" viewBox="0 0 85.17 86.17"><defs><style>.cls-1{fill:#ff6e34;}</style></defs><path class="cls-1" d="M292.07,249.72c-12.17,1-24.45,1.55-36.65,1.81-12.18.1-24.47.7-36.51-1.48-7-.94-9,11.06,4.1,8.73,22.6.42,46.54,2.07,69.14,3.22C300.81,262.46,300.67,249.14,292.07,249.72Z" transform="translate(-213.42 -212.92)"/><path class="cls-1" d="M273,225.05q9.45,0,18.78.15c8-.55,7.23-12.75-.77-12.27-24.33,1.56-48.53,4.75-72.91,3.37C199.53,225.82,269.43,224.93,273,225.05Z" transform="translate(-213.42 -212.92)"/><path class="cls-1" d="M291.44,290.72c-12.26-.35-24.3-1.16-36.45-2.67s-24.48-2.41-36.5.16c-13.13,9,21.79,11.79,26.64,10.62,12.18-1.49,24.56-1.26,36.82-1.29,3.08,0,6.16,0,9.25.06C295.68,297.82,295.88,290.81,291.44,290.72Z" transform="translate(-213.42 -212.92)"/></svg>