<svg xmlns="http://www.w3.org/2000/svg" viewBox="0 0 159.95 164.12"><path d="M155.33 139.5c-21.45-17.77-41.34-37.28-60.47-57.57 8.41-9.41 16.9-18.73 25.56-27.86q16-17.07 32.78-33.39a7 7 0 00-9.09-10.62c-12.72 9.61-24.91 19.87-36.85 30.37-9.3 8.24-18.45 16.67-27.51 25.17-18.41-20.2-36.2-39.11-54.34-59.4-14.34-16.38-34 3.06-17.71 17.7 20.28 18.08 36 38.54 56 56.94-8.57 8.2-15.81 16.91-24.33 25.11-11.39 10.92-21.95 22.78-33.39 33.39-6.62 6.11-8.51 15.35-1.81 21.4 6.34 5.78 14.76 3.67 20.54-2.68 18.81-20.54 38.27-40 56.58-60.82q21.59 20.19 42.69 40.88c6.31 6.17 11.64 13.32 17.8 19.65 11.69 8.93 25.57-9.63 13.55-18.27z" fill="#ff6e34"/></svg>