<svg id="Layer_1" data-name="Layer 1" xmlns="http://www.w3.org/2000/svg" viewBox="0 0 551.22 169.31"><defs><style>.cls-1{fill:#ffcd3d;}.cls-2{fill:#951c3b;}.cls-3{fill:#fff;stroke:#000;stroke-miterlimit:10;}.cls-4{fill:#f36d3f;}.cls-5{fill:#95193c;}.cls-6{fill:#fcca3f;}</style></defs><path class="cls-1" d="M406.38,68.25h47.16a23.87,23.87,0,0,0,17.79-23.09h0a23.87,23.87,0,0,0-23.87-23.87H200.71l3,4.28a89.29,89.29,0,0,1,16.68,5.8,71.85,71.85,0,0,1,19,13A218.07,218.07,0,0,0,270,68.25H376.32c.24-.25.36-.39.36-.39s16.43-13.7,27-3.13A17.42,17.42,0,0,1,406.38,68.25Z" transform="translate(0.01 0)"/><path class="cls-2" d="M235.84,141.56l-1.33,11.21-17.74,7.57-11.09-.83v4.22H502.29a23.87,23.87,0,0,0,0-47.74H365.5c-16.52,4.7-38.23,7.07-64.23,0h-49.6c-4.83,8.06-12.63,15.94-24.83,17.22Z" transform="translate(0.01 0)"/><path class="cls-3" d="M76.5,72.49" transform="translate(0.01 0)"/><path class="cls-4" d="M55.18,56.92a2.84,2.84,0,0,1,.34-5.67H58.3a5.86,5.86,0,1,0,.54,5.67H55.18Z" transform="translate(0.01 0)"/><path class="cls-4" d="M98,57.78a2.84,2.84,0,0,1,0-5.67h2.89a6,6,0,0,0-2.31-2.31,5.87,5.87,0,1,0,2.31,8H98Z" transform="translate(0.01 0)"/><path class="cls-4" d="M.74,86.05a1.67,1.67,0,0,0,1.7,2.87C8.6,85.28,20.05,80.31,27.33,78.5A40.09,40.09,0,0,0,40.79,97.26c10.71,8.61,26.95,12.36,44.15,12.36,4.16,0,8.38-.23,12.59-.65a2.35,2.35,0,0,0,.55.54l38.48,25.14a9.21,9.21,0,0,0-6.5.73c-8.4,4.3-7.44,13.77-5.75,18.17a2.12,2.12,0,0,0,.39.64c.57.61,14.19,15.12,39.43,15.12,21.73,0,31.6-15.54,38.13-25.83,1.21-1.9,2.39-3.7,3.39-5.11,5.77-7.81,18.92-4.72,19-4.72a1.94,1.94,0,0,0,.68,0h.15a.24.24,0,0,0,.09.08c.06,0,5.31,3.66,7.48,8.33-2,.5-6-.07-8.25-.59a2,2,0,1,0-.92,3.9,35,35,0,0,0,7.06.87,13.75,13.75,0,0,0,3-.29,8.56,8.56,0,0,1-3.07,6.13,20,20,0,0,1-8.51-1.11,2,2,0,0,0-1.54,3.69,22.7,22.7,0,0,0,4.73,1.23c-12.92,7-29.8,2.56-30,2.56l-.31-.08a2,2,0,0,0-.69,3.94,55.69,55.69,0,0,0,13.43,1.6c7.82,0,17.61-1.68,25.21-8.43h0c3.45-3.08,5.07-6.56,4.82-10.35-.32-5.34-4.44-9.89-7.32-12.46C245,129.31,251.64,116,251.64,116h46.27c40.14,10.4,67.94-.1,67.59,0H527.35a23.87,23.87,0,0,0,0-47.74H407.78a19.37,19.37,0,0,0-4.25-6.5c-9.38-9.39-23.53-2.14-29.7,3-.1.09-1.79,1.4-4.49,3.49H274.73a209.35,209.35,0,0,1-35.55-27A73.64,73.64,0,0,0,219.62,28c-33.42-15.37-56.42-4.61-63.42-.37,2-4.92,3.06-9.86,1.66-13.37a7.71,7.71,0,0,0-6.22-4.7c-13-2.39-25.32,5.59-29.51,8.67-3.53-2.58-13.69-5.58-42.07-5.58a75.14,75.14,0,0,0-11.22.81l-4-11.24a1.87,1.87,0,0,0-.26-.48A4.63,4.63,0,0,0,60.84,0h0c-3.1,0-6.36,2.48-10.1,7.59A58,58,0,0,0,41,28.34a1.91,1.91,0,0,0,0,.95A29.79,29.79,0,0,0,36.3,41.68L27.62,53.36a2.77,2.77,0,0,0-.26.48,40.3,40.3,0,0,0-.85,21.4c-8.1,2-20,7.43-25.67,10.75Zm64.1-71.87C56.84,15.92,51.12,19,47,22.62A57.87,57.87,0,0,1,53.9,10c3.76-5.25,6-5.94,6.76-6a1,1,0,0,1,.49.07Zm38.66,94a121.35,121.35,0,0,0,34.95-10.35,25.78,25.78,0,0,0,13.86-15.46c4.95-15.06-3.1-33.49-5.37-38.2a102.81,102.81,0,0,0,7.11-11.84,2,2,0,0,0,2.35-.06c.33-.24,24.23-17.79,61.54-.65a70.1,70.1,0,0,1,18.5,12.59C250.39,57.26,284.78,86,317.08,86a51.24,51.24,0,0,0,7-.48c15.17-2.1,26.13-4.91,34-7.69,10.33-3.54,15.33-7,17.39-8.77.38-.32,16.51-13.17,25.23-4.45,3.82,3.82,5.35,9.33,4.3,15.51-1.66,9.83-9.36,18.91-20.65,24.35-40.43,19.53-82.84,16-126-10.47a2,2,0,0,0-3,1.35c0,.33-5.88,31.54-30,34.33-2.45-.52-16-2.92-22.85,6.31-1.13,1.53-2.31,3.35-3.56,5.35-6.42,10.15-15.22,24-34.75,24-21.63,0-34.21-11.6-36.21-13.55a14.59,14.59,0,0,1-.52-7c2.11.69,3.11,3.9,3.11,3.9a2,2,0,0,0,1.93,1.43,1.7,1.7,0,0,0,.55-.08,2,2,0,0,0,1.37-2.46c-.59-2.05-2.27-5.23-5.27-6.44a8.64,8.64,0,0,1,2.27-1.9,2,2,0,0,0,1.08.32c2.72,0,3.94,4,3.94,4a2,2,0,0,0,1.92,1.44,2.1,2.1,0,0,0,.56-.08,2,2,0,0,0,1.37-2.47,12,12,0,0,0-1.43-3.08l1.71.47a2,2,0,0,0,2.35-1.12l1,.63a2,2,0,0,0,1.26,2.41,28.71,28.71,0,0,0,9.43,1.87c5.51,0,10.19-2.43,16-7.76,6.12-5.52,5.46-15,4.63-27a169.16,169.16,0,0,1-.45-23.61c1.43-21.86,25.71-23.93,26.71-24a2,2,0,0,0-.29-4c-.29,0-28.76,2.37-30.42,27.69a172.71,172.71,0,0,0,.43,24.18c.27,3.92.53,7.46.53,10.6-8.59-5-8.73-20.37-8.73-20.54a2,2,0,0,0-2-2h0a2,2,0,0,0-2,2c0,.81.14,19.75,12.54,24.92-.38,3.82-1.41,6.82-3.67,8.82-6.53,5.94-10.83,7.66-17.33,6.26a1.89,1.89,0,0,0-.58-.58ZM31.29,77.62C35.1,76.94,39,76.43,42.86,76c.46,4,2.82,10.42,9.54,12.15A10.85,10.85,0,0,0,58.11,88c5.18-1.45,9.54-6.13,11.47-8.45,2.76,3.17,10.62,10.9,19.76,10.37a10.22,10.22,0,0,0,2.19-.36,7.52,7.52,0,0,0,4.15-2.9c2.53-3.51,2.23-9,1.72-12.39,4.71.06,9.44.24,14.08.71,7.83.83,26.58,4,33,7a1.66,1.66,0,0,0,2.21-.81h0a1.66,1.66,0,0,0-.8-2.21c-7.33-3.42-27.35-6.58-34.08-7.26A229.38,229.38,0,0,0,88.51,71h0a1.66,1.66,0,0,0,0,3.32h6.18c.48,2.92.91,8-1.18,10.85a5.36,5.36,0,0,1-4.33,2.16C80.29,87.8,72.33,78.77,70.84,77l-.37-7.36c.28-.07.57-.13.86-.23,6.44-2.11,4.5-8.87,4.5-8.87s-4.19-5-9.19-2.79a8.39,8.39,0,0,0-4.86,7.63s1.95,3.88,6,4.41l.42,7.3c-1.45,1.86-8.42,10.26-15.12,8.54-5.95-1.52-7.26-7.43-7.55-9.85,2.06-.22,4.12-.41,6.17-.61l-.13-1.66-.15-1.66c-7,.63-14.09,1.36-21.09,2.63A35.13,35.13,0,0,1,31,55.51l8.83-11.89a2,2,0,0,0,.39-1.11c.05-1,1.7-25.87,39.87-25.87,34.39,0,39.5,4.49,40,5.05a2,2,0,0,0,3.12.75c.13-.11,11.33-9.33,23.59-9.33a22.79,22.79,0,0,1,4.12.37c2.22.41,2.91,1.49,3.22,2.26,2.2,5.47-5.66,19.51-11.13,27.08a2,2,0,0,0-.16,2.1c.11.22,10.75,20.79,5.67,36.22a21.91,21.91,0,0,1-11.81,13.1c-27.46,13.33-72.56,16.55-93.35-.16A36.7,36.7,0,0,1,31.29,77.62Z" transform="translate(0.01 0)"/><path class="cls-4" d="M83.84,71.53h0a.66.66,0,0,0,0-.93l-2.26-2.33h0a.66.66,0,0,0-.94.94l2.29,2.32a.69.69,0,0,0,.66.18A.85.85,0,0,0,83.84,71.53Z" transform="translate(0.01 0)"/><path class="cls-4" d="M80.57,78.53a.66.66,0,0,0,.77.32l.14,0,2.11-1.15h0a.66.66,0,0,0,.26-.9.67.67,0,0,0-.9-.27l-2.11,1.15A.67.67,0,0,0,80.57,78.53Z" transform="translate(0.01 0)"/><path class="cls-4" d="M77.55,74.7l-.4-2.33v0a.67.67,0,0,0-1.31.24l.4,2.33v0a.66.66,0,0,0,.76.52h.08A.67.67,0,0,0,77.55,74.7Z" transform="translate(0.01 0)"/><path class="cls-4" d="M87.39,82.19l-.08,0a.67.67,0,0,0-.65,1.17L89,84.81a.61.61,0,0,0,.54.08.66.66,0,0,0,.38-.27h0a.66.66,0,0,0-.21-.91l-2.32-1.51Z" transform="translate(0.01 0)"/><path class="cls-4" d="M57.35,76.85a.66.66,0,0,0,.48.82.73.73,0,0,0,.36,0,.72.72,0,0,0,.46-.47l.78-2.93a.66.66,0,1,0-1.28-.35l-.79,2.89A.06.06,0,0,0,57.35,76.85Z" transform="translate(0.01 0)"/><path class="cls-4" d="M55.25,71.83l.61-2.61,0-.12a.67.67,0,0,0-1.33-.18L54,71.56a.67.67,0,0,0,.5.8.62.62,0,0,0,.33,0A.67.67,0,0,0,55.25,71.83Z" transform="translate(0.01 0)"/><path class="cls-4" d="M53.9,79.2v0a.64.64,0,0,0,.09.91l2.86,2.44a.69.69,0,0,0,.62.13.75.75,0,0,0,.32-.21.67.67,0,0,0-.08-.94l-2.86-2.43A.67.67,0,0,0,53.9,79.2Z" transform="translate(0.01 0)"/><path class="cls-4" d="M61.18,77.89a.67.67,0,0,0,.5.8.65.65,0,0,0,.34,0,.69.69,0,0,0,.46-.49l.61-2.61a.67.67,0,0,0-.5-.8h0a.66.66,0,0,0-.79.5Z" transform="translate(0.01 0)"/><path class="cls-4" d="M61.62,71.82v0a.65.65,0,0,0-.27-.88l-2.57-1.43a.67.67,0,0,0-.91.26h0a.66.66,0,0,0,.26.9l2.58,1.43a.62.62,0,0,0,.5.06A.67.67,0,0,0,61.62,71.82Z" transform="translate(0.01 0)"/><path class="cls-5" d="M88,77.06a1.66,1.66,0,1,0-.19,3.32A63,63,0,0,1,107.29,85c5.3,2.08,10.54,4.61,15.6,7.08l2.88,1.4h0a1.66,1.66,0,0,0,2.2-.78v0a1.66,1.66,0,0,0-.78-2.2l-2.87-1.4c-5.13-2.5-10.42-5.09-15.86-7.19A65.83,65.83,0,0,0,88,77.06Z" transform="translate(0.01 0)"/><path class="cls-5" d="M14.73,95a1.65,1.65,0,0,0,1.73,2.82l2.76-1.69C24,93.2,29,90.15,34,87.6a63,63,0,0,1,18.91-6.45,1.66,1.66,0,0,0-.51-3.29,66.14,66.14,0,0,0-19.89,6.77c-5.2,2.61-10.21,5.68-15.06,8.68L14.73,95Z" transform="translate(0.01 0)"/><path class="cls-6" d="M87.62,66.09a1.67,1.67,0,0,0,1.07,3.16,87.82,87.82,0,0,1,22.38-4.1c4.56-.32,9.19-.45,13.67-.58,3-.09,6.13-.18,9.18-.32a2.5,2.5,0,0,0,.38-.06,1.67,1.67,0,0,0-.54-3.27c-3,.15-6.11.24-9.11.32-4.52.13-9.19.26-13.81.59a91.41,91.41,0,0,0-23.18,4.26Z" transform="translate(0.01 0)"/><path class="cls-6" d="M5.32,66.25a1.67,1.67,0,0,0,.16,3.33c3-.15,6.16-.37,9.16-.57,4.48-.31,9.1-.63,13.67-.75A87.74,87.74,0,0,1,51,70.17a1.67,1.67,0,0,0,.76-3.25,91.59,91.59,0,0,0-23.53-2c-4.64.13-9.3.45-13.81.76-3,.2-6.09.41-9.09.56Z" transform="translate(0.01 0)"/></svg>