<svg id="Layer_1" data-name="Layer 1" xmlns="http://www.w3.org/2000/svg" viewBox="0 0 739.77 456.84"><defs><style>.cls-1{fill:#ffc136;}.cls-2{fill:#ff6e3b;}.cls-3{fill:#96193b;}.cls-4{fill:#f36d3f;}.cls-5{fill:#fd6e3b;}.cls-6{fill:#95193c;}.cls-7{fill:#fcca3f;}.cls-8{fill:#fff;stroke:#000;stroke-miterlimit:10;}</style></defs><path class="cls-1" d="M323.43,387.87h28.69l16.72,2.44L483.18,283a30.58,30.58,0,0,1,42.52.59L593.49,351a30.59,30.59,0,0,0,43.18,0L750.73,232.4a21.42,21.42,0,0,0-33.13-26.8l-80.93,81a30.58,30.58,0,0,1-43.18,0L525.7,219.16a30.58,30.58,0,0,0-42.52-.6l-198.34,186,11.46-9.37Z" transform="translate(-167.22 -105.48)"/><path class="cls-2" d="M900.7,112.38a22.51,22.51,0,0,0-32.47.05l-70,72.07a21.9,21.9,0,0,1-2.42,3.07L636.67,351a30.59,30.59,0,0,1-43.18,0L525.7,283.58a30.58,30.58,0,0,0-42.52-.59L368.84,390.31l8.33,1.22s31.82-3.66,32.34-5.22,25.57,6.78,60-56.87A52.84,52.84,0,0,0,475.37,317c2.36-7.69,17.26-12.23,21.28-5.25l8.86,10.44,3.14,16.69c7.17.44,11.57,3.45,17.05,8.91l67.79,67.45a30.59,30.59,0,0,0,43.18,0l264-271.57A22.52,22.52,0,0,0,900.7,112.38Z" transform="translate(-167.22 -105.48)"/><polygon class="cls-2" points="232.9 313.17 223.51 314.74 225.03 320.07 233.05 313.16 232.9 313.17"/><path class="cls-2" d="M795.86,187.57a21.9,21.9,0,0,0,2.42-3.07L636.67,351Z" transform="translate(-167.22 -105.48)"/><path class="cls-3" d="M593.49,415.19,525.7,347.74A30.47,30.47,0,0,0,506,338.89l-.48,4.12-7.3,19.3-20.35,23.48L456,402l-33.39,14.09-15.33,1.78-13.57,12.63.2.72.52,9.39-1.56,15.65L386,466.66l13.56,2.61,3.65,6.26-.52,6.78-2.11,8.44,88.13-74.28a21.6,21.6,0,0,1,29.89-.2l52,49.15,17.41,17.67a39.11,39.11,0,0,0,56.23-.55l249.18-262a24.25,24.25,0,0,0,.41-32.6h0a24.25,24.25,0,0,0-35.65-.71L636.67,415.16A30.59,30.59,0,0,1,593.49,415.19Z" transform="translate(-167.22 -105.48)"/><polygon class="cls-3" points="225.03 320.07 226.44 324.98 240.01 312.35 233.05 313.16 225.03 320.07"/><path class="cls-4" d="M483.18,347.15" transform="translate(-167.22 -105.48)"/><line class="cls-4" x1="233.05" y1="313.16" x2="240.01" y2="312.35"/><line class="cls-4" x1="226.44" y1="324.98" x2="225.03" y2="320.07"/><path class="cls-4" d="M325.08,522.33a2,2,0,0,1-.55-3.92c9.19-2.65,12.33-6.21,14.62-16.53,1.37-6.18-3.82-12.55-11-21.36a172.83,172.83,0,0,1-14.31-19.47c-13.24-21.63,8.65-40,8.88-40.16a2,2,0,0,1,2.53,3.09h0c-.79.66-19.41,16.34-8,35a169,169,0,0,0,14,19c7.6,9.32,13.6,16.68,11.82,24.76-2.6,11.71-6.83,16.45-17.42,19.51A2.15,2.15,0,0,1,325.08,522.33Z" transform="translate(-167.22 -105.48)"/><path class="cls-4" d="M377.17,510.62a2,2,0,0,1-.69-3.88c.21-.08,21.12-7.95,25.1-25,.77-3.29.36-5.85-1.24-7.83-3.24-4-10.9-4.75-13.56-4.68h0a2,2,0,0,1,0-4c.47,0,11.63-.17,16.76,6.16,2.4,3,3.08,6.75,2,11.26-4.48,19.18-26.68,27.51-27.62,27.86A2.09,2.09,0,0,1,377.17,510.62Z" transform="translate(-167.22 -105.48)"/><path class="cls-4" d="M391.36,479.84a2,2,0,0,1-1.85-1.25,2,2,0,0,1,1.1-2.61c2.24-.9,6.2-3,7.32-4.59a2,2,0,1,1,3.3,2.25c-2.16,3.18-8.41,5.77-9.12,6.05A2,2,0,0,1,391.36,479.84Z" transform="translate(-167.22 -105.48)"/><path class="cls-4" d="M394.54,489.09a2,2,0,0,1-.44-3.95,19.54,19.54,0,0,0,8.06-4.41,2,2,0,0,1,2.74,2.91A23.44,23.44,0,0,1,395,489,1.65,1.65,0,0,1,394.54,489.09Z" transform="translate(-167.22 -105.48)"/><path class="cls-4" d="M333.7,492.93c-11.59,0-20.84-12.89-21.26-13.49a2,2,0,0,1,3.27-2.31c.1.14,10,13.9,20.51,11.52a2,2,0,0,1,.88,3.9A15.34,15.34,0,0,1,333.7,492.93Z" transform="translate(-167.22 -105.48)"/><path class="cls-4" d="M268.54,523a2,2,0,0,1-.07-4l59.33-2.14a2,2,0,1,1,.14,4L268.61,523Z" transform="translate(-167.22 -105.48)"/><path class="cls-4" d="M217.26,546.1c-.85,0-1.68,0-2.51-.07-29.18-1.81-36-27.36-36.06-27.62a1.66,1.66,0,0,1-.06-.54l.34-14.55c-2.11-3.89-12.47-26.74,19-49,23.06-16.29,33.13-19.71,37.51-19.71h.07c1.64-4.94,7.14-18.59,19.1-24.11a7.73,7.73,0,0,1,7.8.25c7.65,5,8.31,25.11,8.35,30.74,4.57,2.54,21.78,12.95,26.42,28.1a25.71,25.71,0,0,1-2.41,20.63C279.66,517.79,245.36,546.1,217.26,546.1Zm-34.63-28.43c.75,2.62,7.33,22.81,32.37,24.37.73,0,1.48.06,2.23.06,26.32,0,59.78-27.79,74.11-53.79a21.88,21.88,0,0,0,2.09-17.51c-4.75-15.54-25.31-26.21-25.52-26.32a2,2,0,0,1-1.09-1.8c.11-9.34-1.57-25.34-6.52-28.55-.7-.45-1.86-.94-3.94,0C243.67,420,239,437.27,238.9,437.45a2,2,0,0,1-3,1.18c-.72-.16-7.48-.88-35.6,19-31.18,22-18.21,43.25-17.65,44.14a2,2,0,0,1,.32,1.12Zm53-79.28Zm0,0h0Zm0,0h0Zm0,0h0Z" transform="translate(-167.22 -105.48)"/><path class="cls-4" d="M176.91,490.92a2,2,0,0,1-1.82-1.19,57.7,57.7,0,0,1-4-22.56c.11-6.33,1.37-10.27,3.87-12a4.63,4.63,0,0,1,4-.72,1.74,1.74,0,0,1,.49.25l10.29,7.1a2,2,0,0,1-2.27,3.3l-9.87-6.82a1,1,0,0,0-.44.23c-.59.49-2,2.31-2.09,8.76a55,55,0,0,0,3.67,20.87,2,2,0,0,1-1,2.64A1.93,1.93,0,0,1,176.91,490.92Z" transform="translate(-167.22 -105.48)"/><path class="cls-4" d="M320.82,529.18a2,2,0,0,1-1.25-.44c-.06,0-3.33-2.58-5.55-1a2,2,0,1,1-2.31-3.26c3.75-2.65,8.28-.52,10.36,1.16a2,2,0,0,1-1.25,3.56Z" transform="translate(-167.22 -105.48)"/><path class="cls-4" d="M319,536.72a2,2,0,0,1-1.25-.44c-.06,0-3.34-2.58-5.55-1a2,2,0,1,1-2.31-3.27c3.75-2.65,8.28-.52,10.36,1.16a2,2,0,0,1-1.25,3.56Z" transform="translate(-167.22 -105.48)"/><path class="cls-4" d="M323.57,544.75a37.42,37.42,0,0,1-7.44-.63,1.91,1.91,0,0,1-.69-.29c-3.92-2.63-10.16-9.8-5.78-18.16a9.22,9.22,0,0,1,5.11-4.43l4.68-1.68a2,2,0,0,1,1.34,3.77L316.12,525a5.33,5.33,0,0,0-2.92,2.52c-3.41,6.53,2.64,11.63,4.15,12.76,2.73.45,19.8,2.62,37.4-9.81,16-11.27,15.15-27.66,14.56-39.63-.11-2.33-.22-4.52-.18-6.42.25-11.48,12.73-17.36,15-18.34,18.1-16.19,4.85-45.06,4.71-45.35a2,2,0,0,1,1.68-2.84c50.53-3.29,87.2-24.88,109-64.16,6-10.89,7.09-22.76,2.79-31.74-2.71-5.65-7.14-9.27-12.46-10.18-12.2-2.11-17.44,14.79-17.94,16.53-.26,2.19-3.05,17.08-32.55,44.72-25.2,23.61-75.12,19.65-95.42,16.85a69.72,69.72,0,0,0-22.38.39c-40.44,7.53-49.8,35.75-49.89,36a2,2,0,0,1-3.82-1.2c.39-1.25,10.06-30.78,53-38.77a73.63,73.63,0,0,1,23.66-.42c19.72,2.72,68.19,6.63,92.14-15.81C466.5,342.17,468,328,468,327.83a2.5,2.5,0,0,1,.06-.38c2.08-7.76,9.45-21.83,22.52-19.59,6.55,1.13,12.16,5.65,15.39,12.4,4.86,10.15,3.78,23.39-2.89,35.41-22.11,39.83-58.93,62-109.48,66,3,8.05,10.21,32.55-7,47.62a1.76,1.76,0,0,1-.58.36c-.13,0-12.63,5.14-12.84,14.85,0,1.75.07,3.88.18,6.13.6,12.17,1.5,30.56-16.25,43.09A58,58,0,0,1,323.57,544.75Z" transform="translate(-167.22 -105.48)"/><path class="cls-4" d="M197.06,499.13a5.82,5.82,0,0,1,5.41-.71L200.2,500a2.84,2.84,0,0,0,3.27,4.64l2.72-1.92a5.87,5.87,0,1,1-9.13-3.61Z" transform="translate(-167.22 -105.48)"/><path class="cls-4" d="M231.8,475.07a5.86,5.86,0,0,1,5.95-.49l-2.36,1.67a2.83,2.83,0,1,0,3.27,4.63l2.36-1.66a5.87,5.87,0,1,1-9.22-4.15Z" transform="translate(-167.22 -105.48)"/><path class="cls-5" d="M251.73,510.59a7.53,7.53,0,0,0,1.72-4.77c.06-6.47-7.63-12.93-8-13.2l-1.7,2.05c.07.06,7.05,5.92,7,11.13a5.34,5.34,0,0,1-2.3,4.26c-7,5.55-18.67,2.76-20.93,2.15l-4.89-6.14-2.08,1.65,5.41,6.81.39.12c.61.18,15,4.51,23.76-2.5A10.16,10.16,0,0,0,251.73,510.59Z" transform="translate(-167.22 -105.48)"/><path class="cls-5" d="M223.53,528.6c4.44-5.53,4.58-14.73,4.58-15.21l-2.66,0c0,.14-.21,13.41-7.44,16.16s-12.3-4.2-12.51-4.49l-2.15,1.57c2.24,3.07,8.38,8.16,15.61,5.41A10.8,10.8,0,0,0,223.53,528.6Z" transform="translate(-167.22 -105.48)"/><path class="cls-5" d="M291.59,473.23a1.66,1.66,0,0,0-1.59-2.68c-8,1.43-26.14,10.4-32,13.72a231.22,231.22,0,0,0-19.47,12.83,1.67,1.67,0,0,0,1.93,2.72,225,225,0,0,1,19.17-12.65c6.86-3.87,24-12.09,31-13.35A1.63,1.63,0,0,0,291.59,473.23Z" transform="translate(-167.22 -105.48)"/><path class="cls-6" d="M283,493.38a1.7,1.7,0,0,0,.34-1.32,1.66,1.66,0,0,0-1.91-1.37l-3.16.52c-5.62.91-11.44,1.86-17.09,3.27a66,66,0,0,0-19.48,7.88,1.66,1.66,0,0,0,1.76,2.82A63,63,0,0,1,262,497.71c5.52-1.38,11.27-2.31,16.83-3.22l3.16-.51A1.67,1.67,0,0,0,283,493.38Z" transform="translate(-167.22 -105.48)"/><path class="cls-7" d="M272.06,465.14a1.67,1.67,0,0,0-2.32-2.36c-2.38,1.86-4.86,3.72-7.26,5.52-3.61,2.71-7.35,5.51-10.94,8.45A91.34,91.34,0,0,0,235,493.62a1.66,1.66,0,1,0,2.69,2,88,88,0,0,1,15.93-16.26c3.53-2.89,7.24-5.67,10.83-8.36,2.41-1.81,4.9-3.68,7.31-5.55A3.44,3.44,0,0,0,272.06,465.14Z" transform="translate(-167.22 -105.48)"/><path class="cls-5" d="M210.85,521.77l-1.06-1.28-1.08-1.26A225.82,225.82,0,0,0,191.56,535c-5.64,5.94-13.11,18.54-16,25a1.67,1.67,0,0,0,3,1.37c3.14-7,10.38-18.78,15.36-24A225.26,225.26,0,0,1,210.85,521.77Z" transform="translate(-167.22 -105.48)"/><path class="cls-6" d="M195,561a1.6,1.6,0,0,0,.23-.38l1.28-3c2.22-5.17,4.51-10.52,7.17-15.53A62.9,62.9,0,0,1,215.36,526a1.67,1.67,0,1,0-2.32-2.39,66,66,0,0,0-12.34,17c-2.74,5.13-5.06,10.54-7.3,15.78-.42,1-.85,2-1.27,3A1.66,1.66,0,0,0,195,561Z" transform="translate(-167.22 -105.48)"/><path class="cls-7" d="M208.09,517.59a1.66,1.66,0,0,0-1.92-2.58A91.16,91.16,0,0,0,185.81,527c-3.72,2.78-7.34,5.73-10.85,8.58-2.32,1.89-4.72,3.85-7.1,5.71a1.66,1.66,0,0,0,2,2.62c2.4-1.88,4.82-3.84,7.15-5.75,3.48-2.83,7.08-5.76,10.74-8.49a88.07,88.07,0,0,1,19.62-11.53A1.6,1.6,0,0,0,208.09,517.59Z" transform="translate(-167.22 -105.48)"/><path class="cls-5" d="M222.1,495.91s5.48,4.41,1.44,9.85S213.41,508,213.41,508a8.43,8.43,0,0,1-.43-9C215.8,494.19,222.1,495.91,222.1,495.91Z" transform="translate(-167.22 -105.48)"/><path class="cls-5" d="M234.94,500.55a.81.81,0,0,0,.13-.3.67.67,0,0,0-.53-.78l-3.22-.57a.66.66,0,0,0-.77.54.67.67,0,0,0,.54.77l3.21.58A.69.69,0,0,0,234.94,500.55Z" transform="translate(-167.22 -105.48)"/><path class="cls-5" d="M237.2,507.71a1.25,1.25,0,0,0,.08-.12l1.06-2.15a.68.68,0,0,0-.3-.9.67.67,0,0,0-.89.31L236.08,507a.67.67,0,0,0,.31.89A.66.66,0,0,0,237.2,507.71Z" transform="translate(-167.22 -105.48)"/><path class="cls-8" d="M229.61,505.29" transform="translate(-167.22 -105.48)"/><path class="cls-5" d="M231.79,507.37a.66.66,0,0,0,0-.88l-1.66-1.67a.67.67,0,0,0-.94,0,.7.7,0,0,0,0,.95l1.67,1.67a.66.66,0,0,0,.94,0Z" transform="translate(-167.22 -105.48)"/><path class="cls-5" d="M247.41,507.9a.7.7,0,0,0,.15-.45.67.67,0,0,0-.7-.63l-2.76.11a.67.67,0,0,0-.64.69.66.66,0,0,0,.69.64l2.77-.11A.69.69,0,0,0,247.41,507.9Z" transform="translate(-167.22 -105.48)"/><path class="cls-5" d="M217.61,520a.66.66,0,0,0,.1-.65l-1.05-2.85a.67.67,0,1,0-1.25.46l1.05,2.85a.67.67,0,0,0,.86.39A.72.72,0,0,0,217.61,520Z" transform="translate(-167.22 -105.48)"/><path class="cls-5" d="M211.79,517.7a.63.63,0,0,0,.1-.66l-1-2.49a.67.67,0,0,0-.87-.36.65.65,0,0,0-.36.86l1,2.49a.66.66,0,0,0,.87.36A.63.63,0,0,0,211.79,517.7Z" transform="translate(-167.22 -105.48)"/><path class="cls-5" d="M220,524.6a.68.68,0,0,0,.15-.36.66.66,0,0,0-.61-.72l-3.74-.34a.67.67,0,1,0-.11,1.33l3.74.33A.66.66,0,0,0,220,524.6Z" transform="translate(-167.22 -105.48)"/><path class="cls-5" d="M221.35,518.7a.67.67,0,0,0,.1-.67l-1-2.48a.68.68,0,0,0-.87-.37.67.67,0,0,0-.37.87l1,2.49a.65.65,0,0,0,.86.36A.6.6,0,0,0,221.35,518.7Z" transform="translate(-167.22 -105.48)"/><path class="cls-5" d="M216.93,513.81a.69.69,0,0,0,.14-.49.67.67,0,0,0-.73-.59l-2.93.32a.66.66,0,1,0,.14,1.32l2.93-.32A.69.69,0,0,0,216.93,513.81Z" transform="translate(-167.22 -105.48)"/><path class="cls-1" d="M607.1,467.11l5.47-.43a.93.93,0,0,0,.82-.66l1.71-7.29a.94.94,0,0,1,1.81,0l1.27,6.63a.93.93,0,0,0,.7.68l5.42.84a.94.94,0,0,1,.2,1.77l-5.82,1.95a.93.93,0,0,0-.49.54L616.66,482a.94.94,0,0,1-1.79-.07l-1.44-11.83a1,1,0,0,0-.51-.6l-6.13-.64A.94.94,0,0,1,607.1,467.11Z" transform="translate(-167.22 -105.48)"/><path class="cls-1" d="M728.54,412l3.1-.24a.55.55,0,0,0,.47-.38l1-4.13a.53.53,0,0,1,1,0l.72,3.76a.53.53,0,0,0,.4.39l3.08.48a.53.53,0,0,1,.11,1l-3.3,1.11a.55.55,0,0,0-.28.3l-.87,6.16a.53.53,0,0,1-1,0l-.82-6.71a.52.52,0,0,0-.29-.34l-3.48-.37A.53.53,0,0,1,728.54,412Z" transform="translate(-167.22 -105.48)"/><path class="cls-1" d="M803.41,221.2l7.44-.59a1.27,1.27,0,0,0,1.11-.89l2.33-9.91a1.28,1.28,0,0,1,2.46.05l1.73,9a1.26,1.26,0,0,0,1,.93l7.37,1.14a1.28,1.28,0,0,1,.26,2.41L819.16,226a1.33,1.33,0,0,0-.67.73l-2.08,14.76a1.27,1.27,0,0,1-2.43-.09l-2-16.09a1.28,1.28,0,0,0-.69-.82l-8.34-.87A1.28,1.28,0,0,1,803.41,221.2Z" transform="translate(-167.22 -105.48)"/><path class="cls-1" d="M777.3,230.35l2.86-.23a.48.48,0,0,0,.42-.34l.9-3.8a.49.49,0,0,1,.94,0l.66,3.46a.5.5,0,0,0,.37.36l2.83.43a.49.49,0,0,1,.1.93l-3,1a.44.44,0,0,0-.25.28l-.8,5.66a.49.49,0,0,1-.93,0l-.76-6.18a.46.46,0,0,0-.27-.31l-3.2-.34A.49.49,0,0,1,777.3,230.35Z" transform="translate(-167.22 -105.48)"/></svg>