<svg id="Layer_1" data-name="Layer 1" xmlns="http://www.w3.org/2000/svg" viewBox="0 0 551.22 169.31"><defs><style>.cls-4{fill:#f36d3f}</style></defs><path d="M406.38 68.25h47.16a23.87 23.87 0 0017.79-23.09 23.87 23.87 0 00-23.87-23.87H200.71l3 4.28a89.29 89.29 0 0116.68 5.8 71.85 71.85 0 0119 13A218.07 218.07 0 00270 68.25h106.32c.24-.25.36-.39.36-.39s16.43-13.7 27-3.13a17.42 17.42 0 012.7 3.52z" transform="translate(.01)" fill="#ffcd3d"/><path d="M235.84 141.56l-1.33 11.21-17.74 7.57-11.09-.83v4.22h296.61a23.87 23.87 0 000-47.74H365.5c-16.52 4.7-38.23 7.07-64.23 0h-49.6c-4.83 8.06-12.63 15.94-24.83 17.22z" transform="translate(.01)" fill="#951c3b"/><path class="cls-4" d="M55.18 56.92a2.84 2.84 0 01.34-5.67h2.78a5.86 5.86 0 10.54 5.67h-3.66zm42.82.86a2.84 2.84 0 010-5.67h2.89a6 6 0 00-2.31-2.31 5.87 5.87 0 102.31 8H98z" transform="translate(.01)"/><path class="cls-4" d="M.74 86.05a1.67 1.67 0 001.7 2.87c6.16-3.64 17.61-8.61 24.89-10.42a40.09 40.09 0 0013.46 18.76c10.71 8.61 26.95 12.36 44.15 12.36 4.16 0 8.38-.23 12.59-.65a2.35 2.35 0 00.55.54l38.48 25.14a9.21 9.21 0 00-6.5.73c-8.4 4.3-7.44 13.77-5.75 18.17a2.12 2.12 0 00.39.64c.57.61 14.19 15.12 39.43 15.12 21.73 0 31.6-15.54 38.13-25.83 1.21-1.9 2.39-3.7 3.39-5.11 5.77-7.81 18.92-4.72 19-4.72a1.94 1.94 0 00.68 0h.15a.24.24 0 00.09.08c.06 0 5.31 3.66 7.48 8.33-2 .5-6-.07-8.25-.59a2 2 0 10-.92 3.9 35 35 0 007.06.87 13.75 13.75 0 003-.29 8.56 8.56 0 01-3.07 6.13 20 20 0 01-8.51-1.11 2 2 0 00-1.54 3.69 22.7 22.7 0 004.73 1.23c-12.92 7-29.8 2.56-30 2.56l-.31-.08a2 2 0 00-.69 3.94 55.69 55.69 0 0013.43 1.6c7.82 0 17.61-1.68 25.21-8.43 3.45-3.08 5.07-6.56 4.82-10.35-.32-5.34-4.44-9.89-7.32-12.46C245 129.31 251.64 116 251.64 116h46.27c40.14 10.4 67.94-.1 67.59 0h161.85a23.87 23.87 0 000-47.74H407.78a19.37 19.37 0 00-4.25-6.5c-9.38-9.39-23.53-2.14-29.7 3-.1.09-1.79 1.4-4.49 3.49h-94.61a209.35 209.35 0 01-35.55-27A73.64 73.64 0 00219.62 28c-33.42-15.37-56.42-4.61-63.42-.37 2-4.92 3.06-9.86 1.66-13.37a7.71 7.71 0 00-6.22-4.7c-13-2.39-25.32 5.59-29.51 8.67-3.53-2.58-13.69-5.58-42.07-5.58a75.14 75.14 0 00-11.22.81l-4-11.24a1.87 1.87 0 00-.26-.48A4.63 4.63 0 0060.84 0c-3.1 0-6.36 2.48-10.1 7.59A58 58 0 0041 28.34a1.91 1.91 0 000 .95 29.79 29.79 0 00-4.7 12.39l-8.68 11.68a2.77 2.77 0 00-.26.48 40.3 40.3 0 00-.85 21.4c-8.1 2-20 7.43-25.67 10.75zm64.1-71.87c-8 1.74-13.72 4.82-17.84 8.44A57.87 57.87 0 0153.9 10c3.76-5.25 6-5.94 6.76-6a1 1 0 01.49.07zm38.66 94a121.35 121.35 0 0034.95-10.35 25.78 25.78 0 0013.86-15.46c4.95-15.06-3.1-33.49-5.37-38.2a102.81 102.81 0 007.11-11.84 2 2 0 002.35-.06c.33-.24 24.23-17.79 61.54-.65a70.1 70.1 0 0118.5 12.59C250.39 57.26 284.78 86 317.08 86a51.24 51.24 0 007-.48c15.17-2.1 26.13-4.91 34-7.69 10.33-3.54 15.33-7 17.39-8.77.38-.32 16.51-13.17 25.23-4.45 3.82 3.82 5.35 9.33 4.3 15.51-1.66 9.83-9.36 18.91-20.65 24.35-40.43 19.53-82.84 16-126-10.47a2 2 0 00-3 1.35c0 .33-5.88 31.54-30 34.33-2.45-.52-16-2.92-22.85 6.31-1.13 1.53-2.31 3.35-3.56 5.35-6.42 10.15-15.22 24-34.75 24-21.63 0-34.21-11.6-36.21-13.55a14.59 14.59 0 01-.52-7c2.11.69 3.11 3.9 3.11 3.9a2 2 0 001.93 1.43 1.7 1.7 0 00.55-.08 2 2 0 001.37-2.46c-.59-2.05-2.27-5.23-5.27-6.44a8.64 8.64 0 012.27-1.9 2 2 0 001.08.32c2.72 0 3.94 4 3.94 4a2 2 0 001.92 1.44 2.1 2.1 0 00.56-.08 2 2 0 001.37-2.47 12 12 0 00-1.43-3.08l1.71.47a2 2 0 002.35-1.12l1 .63a2 2 0 001.26 2.41 28.71 28.71 0 009.43 1.87c5.51 0 10.19-2.43 16-7.76 6.12-5.52 5.46-15 4.63-27a169.16 169.16 0 01-.45-23.61c1.43-21.86 25.71-23.93 26.71-24a2 2 0 00-.29-4c-.29 0-28.76 2.37-30.42 27.69a172.71 172.71 0 00.43 24.18c.27 3.92.53 7.46.53 10.6-8.59-5-8.73-20.37-8.73-20.54a2 2 0 00-2-2 2 2 0 00-2 2c0 .81.14 19.75 12.54 24.92-.38 3.82-1.41 6.82-3.67 8.82-6.53 5.94-10.83 7.66-17.33 6.26a1.89 1.89 0 00-.58-.58zM31.29 77.62C35.1 76.94 39 76.43 42.86 76c.46 4 2.82 10.42 9.54 12.15a10.85 10.85 0 005.71-.15c5.18-1.45 9.54-6.13 11.47-8.45 2.76 3.17 10.62 10.9 19.76 10.37a10.22 10.22 0 002.19-.36 7.52 7.52 0 004.15-2.9c2.53-3.51 2.23-9 1.72-12.39 4.71.06 9.44.24 14.08.71 7.83.83 26.58 4 33 7a1.66 1.66 0 002.21-.81 1.66 1.66 0 00-.8-2.21c-7.33-3.42-27.35-6.58-34.08-7.26a229.38 229.38 0 00-23.3-.7 1.66 1.66 0 000 3.32h6.18c.48 2.92.91 8-1.18 10.85a5.36 5.36 0 01-4.33 2.16c-8.89.47-16.85-8.56-18.34-10.33l-.37-7.36c.28-.07.57-.13.86-.23 6.44-2.11 4.5-8.87 4.5-8.87s-4.19-5-9.19-2.79a8.39 8.39 0 00-4.86 7.63s1.95 3.88 6 4.41l.42 7.3c-1.45 1.86-8.42 10.26-15.12 8.54-5.95-1.52-7.26-7.43-7.55-9.85 2.06-.22 4.12-.41 6.17-.61l-.13-1.66-.15-1.66c-7 .63-14.09 1.36-21.09 2.63A35.13 35.13 0 0131 55.51l8.83-11.89a2 2 0 00.39-1.11c.05-1 1.7-25.87 39.87-25.87 34.39 0 39.5 4.49 40 5.05a2 2 0 003.12.75c.13-.11 11.33-9.33 23.59-9.33a22.79 22.79 0 014.12.37c2.22.41 2.91 1.49 3.22 2.26 2.2 5.47-5.66 19.51-11.13 27.08a2 2 0 00-.16 2.1c.11.22 10.75 20.79 5.67 36.22a21.91 21.91 0 01-11.81 13.1c-27.46 13.33-72.56 16.55-93.35-.16a36.7 36.7 0 01-12.07-16.46z" transform="translate(.01)"/><path class="cls-4" d="M83.84 71.53a.66.66 0 000-.93l-2.26-2.33a.66.66 0 00-.94.94l2.29 2.32a.69.69 0 00.66.18.85.85 0 00.25-.18zm-3.27 7a.66.66 0 00.77.32h.14l2.11-1.15a.66.66 0 00.26-.9.67.67 0 00-.9-.27l-2.11 1.15a.67.67 0 00-.27.85zm-3.02-3.83l-.4-2.33a.67.67 0 00-1.31.24l.4 2.33a.66.66 0 00.76.52h.08a.67.67 0 00.47-.76zm9.84 7.49h-.08a.67.67 0 00-.65 1.17L89 84.81a.61.61 0 00.54.08.66.66 0 00.38-.27.66.66 0 00-.21-.91l-2.32-1.51zm-30.04-5.34a.66.66 0 00.48.82.73.73 0 00.36 0 .72.72 0 00.46-.47l.78-2.93a.66.66 0 10-1.28-.35l-.79 2.89a.06.06 0 00-.01.04zm-2.1-5.02l.61-2.61v-.12a.67.67 0 00-1.33-.18L54 71.56a.67.67 0 00.5.8.62.62 0 00.33 0 .67.67 0 00.42-.53zM53.9 79.2a.64.64 0 00.09.91l2.86 2.44a.69.69 0 00.62.13.75.75 0 00.32-.21.67.67 0 00-.08-.94l-2.86-2.43a.67.67 0 00-.95.1zm7.28-1.31a.67.67 0 00.5.8.65.65 0 00.34 0 .69.69 0 00.46-.49l.61-2.61a.67.67 0 00-.5-.8.66.66 0 00-.79.5zm.44-6.07a.65.65 0 00-.27-.88l-2.57-1.43a.67.67 0 00-.91.26.66.66 0 00.26.9l2.58 1.43a.62.62 0 00.5.06.67.67 0 00.41-.34z" transform="translate(.01)"/><path d="M88 77.06a1.66 1.66 0 10-.19 3.32A63 63 0 01107.29 85c5.3 2.08 10.54 4.61 15.6 7.08l2.88 1.4a1.66 1.66 0 002.2-.78 1.66 1.66 0 00-.78-2.2l-2.87-1.4c-5.13-2.5-10.42-5.09-15.86-7.19A65.83 65.83 0 0088 77.06zM14.73 95a1.65 1.65 0 001.73 2.82l2.76-1.69C24 93.2 29 90.15 34 87.6a63 63 0 0118.91-6.45 1.66 1.66 0 00-.51-3.29 66.14 66.14 0 00-19.89 6.77c-5.2 2.61-10.21 5.68-15.06 8.68L14.73 95z" transform="translate(.01)" fill="#95193c"/><path d="M87.62 66.09a1.67 1.67 0 001.07 3.16 87.82 87.82 0 0122.38-4.1c4.56-.32 9.19-.45 13.67-.58 3-.09 6.13-.18 9.18-.32a2.5 2.5 0 00.38-.06 1.67 1.67 0 00-.54-3.27c-3 .15-6.11.24-9.11.32-4.52.13-9.19.26-13.81.59a91.41 91.41 0 00-23.18 4.26zm-82.3.16a1.67 1.67 0 00.16 3.33c3-.15 6.16-.37 9.16-.57 4.48-.31 9.1-.63 13.67-.75A87.74 87.74 0 0151 70.17a1.67 1.67 0 00.76-3.25 91.59 91.59 0 00-23.53-2c-4.64.13-9.3.45-13.81.76-3 .2-6.09.41-9.09.56z" transform="translate(.01)" fill="#fcca3f"/></svg>