<svg id="Режим_изоляции" data-name="Режим изоляции" xmlns="http://www.w3.org/2000/svg" viewBox="0 0 223.13 241.74"><defs><style>.cls-1,.cls-2,.cls-4,.cls-5{fill:none;stroke:#e16e3b;stroke-width:2px;}.cls-1,.cls-2{stroke-miterlimit:10;}.cls-2,.cls-5{stroke-linecap:round;}.cls-3{fill:#e16e3b;}.cls-4,.cls-5{stroke-linejoin:round;}</style></defs><circle class="cls-1" cx="112.21" cy="119.47" r="97.28"/><path class="cls-2" d="M1710.16,992.82q.4,4.57.4,9.24a105.32,105.32,0,0,1-105.32,105.32" transform="translate(-1488.44 -879.13)"/><path class="cls-2" d="M1489.44,994a99.58,99.58,0,0,1,56.89-90" transform="translate(-1488.44 -879.13)"/><path class="cls-3" d="M1590,920.9c26.81-3.86,57.13,7.57,69.78,32.59a1,1,0,1,1-1.8.88,54.23,54.23,0,0,0-11.79-16c-14.78-14-36.18-19.65-56.19-17.44Z" transform="translate(-1488.44 -879.13)"/><polyline class="cls-4" points="97.11 23.04 87.32 1 137.11 1 127.75 23.38"/><polyline class="cls-5" points="153.96 31.64 160.09 21.68 173.11 30.11 167.23 38.87"/><line class="cls-2" x1="1.02" y1="228.32" x2="86.81" y2="228.32"/><line class="cls-2" x1="45.96" y1="240.74" x2="187.66" y2="240.74"/><polygon class="cls-5" points="86.81 87.04 79.92 71.98 87.83 67.13 98.04 80.66 106.72 78.62 108.25 62.28 117.7 62.28 118.98 78.36 127.15 80.66 138.13 67.89 145.02 71.98 138.64 87.04 145.02 93.68 160.34 87.55 163.91 93.43 152.17 104.4 153.45 112.83 169.79 114.87 169.53 124.06 153.96 125.85 151.91 134.02 163.91 144.75 160.09 150.87 145.28 146.02 139.91 150.87 145.02 166.7 138.38 170.79 128.17 158.28 119.23 160.06 117.96 176.66 108.77 176.66 106.72 160.57 98.55 158.79 87.06 171.3 81.19 167.47 87.06 151.89 80.94 146.28 65.36 151.64 61.02 145 73.79 135.3 72 126.87 54.64 123.81 54.64 115.89 71.23 114.11 74.04 105.17 60.51 94.45 64.6 86.79 81.19 93.43 86.81 87.04"/><circle class="cls-2" cx="112.21" cy="119.47" r="20.68"/><polyline class="cls-5" points="160.34 70.02 172.34 77.6 169.81 62.44"/><path class="cls-3" d="M1605.46,1072.84c-26.68,3.88-54.57-8.95-69.16-31.67a1,1,0,0,1,1.69-1.07c13.73,22.67,41.11,35.94,67.47,32.74Z" transform="translate(-1488.44 -879.13)"/><polyline class="cls-5" points="59.51 167.15 47.28 159.42 49.85 174.87"/></svg>