<svg id="Layer_1" data-name="Layer 1" xmlns="http://www.w3.org/2000/svg" viewBox="0 0 477.46 368.44"><defs><style>.cls-1{fill:#ff6e3b;}</style></defs><circle class="cls-1" cx="414.97" cy="322.99" r="6.57"/><path class="cls-1" d="M489.88,478.05h-86V326.91h71.73a6.66,6.66,0,0,0,6.58-6.57,7.07,7.07,0,0,0-6.58-6.57H403.91V292.41a6.57,6.57,0,1,0-13.14,0v21.36H351.34a6.66,6.66,0,0,0-6.57,6.57v19.17h-20l-40-35.05a6.25,6.25,0,0,0-4.38-1.64H170.3a6.33,6.33,0,0,0-6.57,6.57,65.51,65.51,0,0,0,8.76,30.67h-8.21s-29.57-45.45-30.67-47.1c-9.85-14.23-26.83-25.19-44.9-19.16l-10.95,3.83a6.61,6.61,0,0,0-3.83,3.83,6.49,6.49,0,0,0,.54,5.48l2.19,3.28c-15.33-7.66-34.5-8.76-47.09,3.84l-8.21,8.76c-4.38,4.93-1.65,8.21,1.09,9.86l98,67.35s156.06,58,157.16,58h66.59v11.5c0,3.84,3.29,6.58,7.12,6.58h38.88v29a6.66,6.66,0,0,0,6.57,6.57h93.09a6.66,6.66,0,0,0,6.57-6.57C497,481.33,493.72,478.05,489.88,478.05ZM99.11,285.3c8.77,0,17,6,23,13.69,1.1,1.64,18.07,27.92,18.07,27.92L99.66,303.37,90.9,286.94S97.47,285.3,99.11,285.3ZM343.67,424.39H278.18L127.59,368.53,36.69,306.1l2.19-2.19c9.31-9.3,25.19-6,36.14,1.65l81.59,47.09a7.78,7.78,0,0,0,3.29,1.1h98a6.66,6.66,0,0,0,6.57-6.58,7.07,7.07,0,0,0-6.57-6.57H196C185.63,339,178,327.46,176.87,317.06h99.66l40,35a6.2,6.2,0,0,0,4.38,1.65h22.78Zm46.55,17.52H357.91v-115h32.31Z" transform="translate(-19.06 -123.3)"/><path class="cls-1" d="M134.58,239.4l.19-42.35c0-9.3-5.32-16.94-14.62-20.26a168.94,168.94,0,0,0-18.6-4,27.59,27.59,0,0,0,10.3-21.59h0a27.77,27.77,0,0,0-7.3-18.71c-.3-.33-.61-.66-.93-1a28.86,28.86,0,0,0-4.13-3.42,27.57,27.57,0,0,0-31.09,0,28.4,28.4,0,0,0-4.14,3.42c-.32.32-.63.65-.93,1A27.76,27.76,0,0,0,56,151.21h0A27.58,27.58,0,0,0,66.33,172.8c-3.15.5-6.23,1.08-9.3,1.75s-6.14,1.41-9.3,2.24a22.26,22.26,0,0,0-14.62,20.26L33,238.63c13.67,12.86,30.72,20.88,51,20.88C103.8,259.51,121,251.83,134.58,239.4ZM83.53,136.61c8.24.29,14.68,6.68,14.68,14.6a14.6,14.6,0,1,1-14.68-14.6ZM46.42,197.56A9,9,0,0,1,52,189.83a111.57,111.57,0,0,1,64.25,0,8.26,8.26,0,0,1,5.54,7.7v36.59a63.38,63.38,0,0,1-37.53,12.41,64.8,64.8,0,0,1-37.85-12.75Z" transform="translate(-19.06 -123.3)"/><path class="cls-1" d="M150.12,244.46a71.82,71.82,0,0,0,45.69,16.29,73.09,73.09,0,0,0,45.37-15.68q2.72-2.1,5.27-4.43l.18-42.35h0a20.88,20.88,0,0,0-4.8-13.65A22.61,22.61,0,0,0,232,178c-4.49-1.25-9.16-2.31-13.88-3.18-1.57-.29-3.15-.56-4.73-.81a27.57,27.57,0,0,0,10.3-21.59,27.86,27.86,0,0,0-9.19-20.61c-.66-.61-1.36-1.18-2.07-1.72a28.06,28.06,0,0,0-3.4-2.18,26.2,26.2,0,0,0-2.44-1.19c-.41-.17-.83-.34-1.26-.5a27.53,27.53,0,0,0-9.54-1.71h0a27.75,27.75,0,0,0-18.71,7.3c-.34.3-.66.61-1,.92a29.5,29.5,0,0,0-3.42,4.14A27.7,27.7,0,0,0,178.2,174q-2.37.38-4.68.81c-4.64.87-9.19,1.93-13.92,3.18a20.91,20.91,0,0,0-4.53,2.21c-.55.35-1.07.74-1.57,1.13a22.2,22.2,0,0,0-3.33,3.24,22.78,22.78,0,0,0-1.9,2.68,24.43,24.43,0,0,0-1.49,2.93c-.27.62-.49,1.26-.7,1.91a22.84,22.84,0,0,0-1.1,6.16l-.15,41.43v.14h0c.86.81,1.73,1.59,2.61,2.36S149.21,243.73,150.12,244.46ZM195.4,137.85c8.23.28,14.67,6.68,14.67,14.6a14.6,14.6,0,1,1-14.67-14.6Zm-37.12,61a9,9,0,0,1,5.59-7.73,111.57,111.57,0,0,1,64.25,0,8.24,8.24,0,0,1,5.54,7.7v36.58a63.31,63.31,0,0,1-37.52,12.41A64.82,64.82,0,0,1,158.28,235Z" transform="translate(-19.06 -123.3)"/><path class="cls-1" d="M307.67,259.51c19.86,0,37.05-7.68,50.64-20.11l.19-42.35c0-9.3-5.31-16.94-14.62-20.26-3-.83-6.06-1.58-9.17-2.24s-6.27-1.25-9.43-1.75a25.11,25.11,0,0,0,2.25-2l.06-.06a28.07,28.07,0,0,0,2.65-3.11l.51-.73a28.21,28.21,0,0,0,1.71-2.87,29.89,29.89,0,0,0,1.37-3.11c.11-.29.21-.58.31-.87a27.89,27.89,0,0,0-20.88-36.17,27.19,27.19,0,0,0-5.59-.58,27.65,27.65,0,0,0-15.54,4.8,28.94,28.94,0,0,0-4.14,3.42c-.32.32-.63.65-.93,1a27.76,27.76,0,0,0-7.29,18.71h0a27.56,27.56,0,0,0,10.3,21.59c-3.16.5-6.23,1.08-9.31,1.75s-6.14,1.41-9.3,2.24a21.2,21.2,0,0,0-5.88,3.16,22.7,22.7,0,0,0-8.74,17.1l-.14,41.58c10.26,9.65,22.41,16.57,36.39,19.42A72.09,72.09,0,0,0,307.67,259.51Zm-.41-122.9c8.24.29,14.68,6.68,14.68,14.6a14.6,14.6,0,1,1-14.68-14.6Zm-37.11,60.95a9,9,0,0,1,5.59-7.73,111.57,111.57,0,0,1,64.25,0,8.26,8.26,0,0,1,5.54,7.7v36.59A63.38,63.38,0,0,1,308,246.54a64.8,64.8,0,0,1-37.85-12.75Z" transform="translate(-19.06 -123.3)"/></svg>