<svg id="Слой_1" data-name="Слой 1" xmlns="http://www.w3.org/2000/svg" viewBox="0 0 370.88 313.1"><defs><style>.cls-1{fill:#301e1d;}.cls-2{fill:#ffc136;}.cls-3{fill:#ff6e3b;}.cls-4{fill:#96193b;}</style></defs><path class="cls-1" d="M26.56,293.25H14.13l-1.84,5.63H0l13.63-37.26H27.13l13.59,37.26H28.4Zm-2.85-8.79-3.37-10.37L17,284.46Z" transform="translate(-0.03)"/><path class="cls-1" d="M52.67,277.87v8.64H44.33v-8.64Z" transform="translate(-0.03)"/><path class="cls-1" d="M78.79,290.09v8.79H74.32Q63,298.88,63,287.67v-9.74H59.37v-8.58H63v-7.16H73.37v7.16h5.37v8.58H73.37v9.9a2.35,2.35,0,0,0,.55,1.74,2.68,2.68,0,0,0,1.87.52Z" transform="translate(-0.03)"/><path class="cls-1" d="M112.51,286.2H93a5.45,5.45,0,0,0,1.35,3.6,4.08,4.08,0,0,0,3,1.19,3.8,3.8,0,0,0,3.69-2.32h11a12.87,12.87,0,0,1-2.66,5.45,13.66,13.66,0,0,1-5,3.76,15.68,15.68,0,0,1-6.64,1.37A16,16,0,0,1,90,297.41a13.23,13.23,0,0,1-5.32-5.27,17.88,17.88,0,0,1,0-16.08A13.06,13.06,0,0,1,90,270.83a17.52,17.52,0,0,1,15.55-.06,13,13,0,0,1,5.27,5.14,15.73,15.73,0,0,1,1.89,7.87A18,18,0,0,1,112.51,286.2Zm-10.37-5a3.71,3.71,0,0,0-1.26-3,4.7,4.7,0,0,0-3.16-1.08,4.64,4.64,0,0,0-3.1,1,4.93,4.93,0,0,0-1.58,3Z" transform="translate(-0.03)"/><path class="cls-1" d="M117.78,276.09a12.67,12.67,0,0,1,4.53-5.26,11.57,11.57,0,0,1,6.4-1.85A10.79,10.79,0,0,1,134,270.2a8.73,8.73,0,0,1,3.42,3.26v-4.11h10.32v29.53H137.39v-4.1a8.75,8.75,0,0,1-3.45,3.26,10.77,10.77,0,0,1-5.23,1.21,11.56,11.56,0,0,1-6.4-1.84,12.64,12.64,0,0,1-4.53-5.29,18.43,18.43,0,0,1-1.66-8A18.23,18.23,0,0,1,117.78,276.09Zm18.06,3.53a5.35,5.35,0,0,0-7.66,0,6.26,6.26,0,0,0-1.53,4.5,6.36,6.36,0,0,0,1.53,4.5,5,5,0,0,0,3.84,1.66,5.07,5.07,0,0,0,3.82-1.63,6.33,6.33,0,0,0,1.55-4.53A6.25,6.25,0,0,0,135.84,279.62Z" transform="translate(-0.03)"/><path class="cls-1" d="M201.88,272.46c2.12,2.24,3.18,5.32,3.18,9.21v17.21H194.75V283a5,5,0,0,0-1.32-3.69,5.55,5.55,0,0,0-7.16,0A5,5,0,0,0,185,283v15.84H174.64V283a5.06,5.06,0,0,0-1.29-3.69A4.78,4.78,0,0,0,169.8,278a5,5,0,0,0-3.64,1.31,5,5,0,0,0-1.31,3.69v15.84H154.53V269.35h10.32v3.9a9.88,9.88,0,0,1,3.55-3,10.84,10.84,0,0,1,5-1.13,11.71,11.71,0,0,1,5.81,1.42,10.33,10.33,0,0,1,4,4,12.22,12.22,0,0,1,4.16-3.92,11.09,11.09,0,0,1,5.68-1.5Q198.69,269.09,201.88,272.46Z" transform="translate(-0.03)"/><path class="cls-1" d="M231.18,271.19a10.87,10.87,0,0,1,4.18,4.11V270h4.84v29.48a14.4,14.4,0,0,1-1.68,7,12,12,0,0,1-4.82,4.82,14.72,14.72,0,0,1-7.29,1.74,16,16,0,0,1-9.47-2.69,10.5,10.5,0,0,1-4.48-7.32h4.74a7.55,7.55,0,0,0,3.27,4.24,10.66,10.66,0,0,0,5.94,1.61,8.78,8.78,0,0,0,6.45-2.48,9.31,9.31,0,0,0,2.5-6.94v-6.06a11.48,11.48,0,0,1-4.21,4.21,12.31,12.31,0,0,1-6.53,1.69,13.13,13.13,0,0,1-11.89-7.22,16.45,16.45,0,0,1-1.79-7.79,16.13,16.13,0,0,1,1.79-7.76,12.87,12.87,0,0,1,4.92-5.18,13.48,13.48,0,0,1,7-1.85A12.92,12.92,0,0,1,231.18,271.19Zm2.87,7.53a9.36,9.36,0,0,0-3.56-3.71,10,10,0,0,0-9.81,0,9.15,9.15,0,0,0-3.53,3.68,11.68,11.68,0,0,0-1.32,5.68,12,12,0,0,0,1.32,5.77,9.31,9.31,0,0,0,3.53,3.74,9.51,9.51,0,0,0,4.89,1.29,9.67,9.67,0,0,0,4.92-1.29,9.32,9.32,0,0,0,3.56-3.74,12,12,0,0,0,1.31-5.71A11.83,11.83,0,0,0,234.05,278.72Z" transform="translate(-0.03)"/><path class="cls-1" d="M253.1,259.93v38.95h-4.79V259.93Z" transform="translate(-0.03)"/><path class="cls-1" d="M266.5,297.51a13,13,0,0,1-5.16-5.23,16,16,0,0,1-1.87-7.87,15.6,15.6,0,0,1,1.92-7.82,13.26,13.26,0,0,1,5.24-5.21,16,16,0,0,1,14.84,0,13.31,13.31,0,0,1,5.24,5.18,16.85,16.85,0,0,1,0,15.72,13.65,13.65,0,0,1-5.35,5.23,15.26,15.26,0,0,1-7.47,1.85A14.74,14.74,0,0,1,266.5,297.51Zm12.18-3.57a9.21,9.21,0,0,0,3.66-3.64,11.62,11.62,0,0,0,1.4-5.89,11.86,11.86,0,0,0-1.37-5.9,9,9,0,0,0-3.58-3.6,10.3,10.3,0,0,0-9.61,0,8.69,8.69,0,0,0-3.5,3.6,12.19,12.19,0,0,0-1.32,5.9,12.55,12.55,0,0,0,1.29,5.95,8.58,8.58,0,0,0,3.45,3.6,9.7,9.7,0,0,0,4.74,1.19A10.19,10.19,0,0,0,278.68,293.94Z" transform="translate(-0.03)"/><path class="cls-1" d="M304.05,271.19a12.89,12.89,0,0,1,6.48-1.63,13.46,13.46,0,0,1,7,1.85,12.93,12.93,0,0,1,4.89,5.18,16.13,16.13,0,0,1,1.79,7.76,16.45,16.45,0,0,1-1.79,7.79,13.13,13.13,0,0,1-11.89,7.22,12.85,12.85,0,0,1-6.56-1.64,11,11,0,0,1-4.23-4.15v5.31H295V259.93h4.79v15.48A11.36,11.36,0,0,1,304.05,271.19ZM318,278.67a9.07,9.07,0,0,0-3.55-3.68,9.75,9.75,0,0,0-4.92-1.27,9.56,9.56,0,0,0-4.87,1.29,9.43,9.43,0,0,0-3.58,3.74,11.52,11.52,0,0,0-1.34,5.66,11.64,11.64,0,0,0,1.34,5.71,9.43,9.43,0,0,0,3.58,3.74,9.56,9.56,0,0,0,4.87,1.29,9.67,9.67,0,0,0,4.92-1.29,9.23,9.23,0,0,0,3.55-3.74,12,12,0,0,0,1.32-5.77A11.68,11.68,0,0,0,318,278.67Z" transform="translate(-0.03)"/><path class="cls-1" d="M330.53,276.59a12.87,12.87,0,0,1,4.92-5.18,13.49,13.49,0,0,1,7-1.85,12.9,12.9,0,0,1,6.58,1.63,11,11,0,0,1,4.16,4.11V270H358v28.84h-4.84v-5.37a11.37,11.37,0,0,1-4.24,4.19,12.74,12.74,0,0,1-6.56,1.66,13,13,0,0,1-6.94-1.9,13.21,13.21,0,0,1-4.9-5.32,16.57,16.57,0,0,1-1.79-7.79A16.25,16.25,0,0,1,330.53,276.59Zm21.32,2.13A9.34,9.34,0,0,0,348.3,275a9.73,9.73,0,0,0-4.93-1.29,9.59,9.59,0,0,0-4.89,1.27,9.22,9.22,0,0,0-3.53,3.68,11.68,11.68,0,0,0-1.31,5.68,12,12,0,0,0,1.31,5.77,9.38,9.38,0,0,0,3.53,3.74,9.51,9.51,0,0,0,4.89,1.29,9.73,9.73,0,0,0,4.93-1.29,9.29,9.29,0,0,0,3.55-3.74,11.86,11.86,0,0,0,1.32-5.71A11.72,11.72,0,0,0,351.85,278.72Z" transform="translate(-0.03)"/><path class="cls-1" d="M370.9,259.93v38.95h-4.79V259.93Z" transform="translate(-0.03)"/><path class="cls-2" d="M162.78,58.89,214.16,110a23.19,23.19,0,0,0,32.73,0l61.23-61.15V0L246.89,61.15a23.18,23.18,0,0,1-32.73,0L162.78,10.05a23.17,23.17,0,0,0-32.23-.45L62.81,73.36v48.83l67.74-63.75A23.17,23.17,0,0,1,162.78,58.89Z" transform="translate(-0.03)"/><path class="cls-3" d="M214.16,110,162.78,58.89a23.17,23.17,0,0,0-32.23-.45L62.81,122.19v48.63l67.74-63.75a23.17,23.17,0,0,1,32.23.45l51.38,51.12a23.18,23.18,0,0,0,32.73,0l61.23-61.15V48.84L246.89,110A23.19,23.19,0,0,1,214.16,110Z" transform="translate(-0.03)"/><path class="cls-4" d="M246.89,158.61a23.18,23.18,0,0,1-32.73,0l-51.38-51.12a23.17,23.17,0,0,0-32.23-.45L62.81,170.82v58.66l33.83-32.77H196.85L210,210.11a29.64,29.64,0,0,0,42.62-.42l55.46-58.51V97.46Zm-123.71,9.74,18.37-20.15a7.47,7.47,0,0,1,11.23.23l16.77,19.92Z" transform="translate(-0.03)"/><path class="cls-2" d="M141.55,148.2l-18.37,20.15h46.37l-16.77-19.92A7.47,7.47,0,0,0,141.55,148.2Z" transform="translate(-0.03)"/></svg>