<svg id="Слой_1" data-name="Слой 1" xmlns="http://www.w3.org/2000/svg" viewBox="0 0 1605.02 350.14"><defs><style>.cls-1{fill:#301e1d;}.cls-2{fill:#ffc136;}.cls-3{fill:#ff6e3b;}.cls-4{fill:#96193b;}</style></defs><path class="cls-1" d="M458,1167q-2.25-2.13-2.25-7.06v-40.21h21.82v-34.86H455.71v-29.09H413.58v29.09H398.82v34.86h14.76v39.57q0,45.56,46,45.56h18.18v-35.72H465.55C462,1169.14,459.45,1168.43,458,1167Z" transform="translate(-36.85 -912.04)"/><path class="cls-1" d="M582.54,1090.65q-13.69-7.28-31.44-7.28-18,0-31.76,7.49a53.25,53.25,0,0,0-21.5,21.28q-7.69,13.8-7.7,32.62t7.81,32.72a53.76,53.76,0,0,0,21.6,21.39q13.8,7.49,31.55,7.49a64.15,64.15,0,0,0,26.95-5.57,55.58,55.58,0,0,0,20.21-15.29,52.16,52.16,0,0,0,10.8-22.13h-44.7q-4.49,9.41-15,9.41a16.66,16.66,0,0,1-12.3-4.82q-4.82-4.8-5.45-14.65H611a77.17,77.17,0,0,0,.64-9.84q0-18.39-7.7-32A52.49,52.49,0,0,0,582.54,1090.65ZM531.85,1133q1.5-8.12,6.42-12.29t12.62-4.17a19.07,19.07,0,0,1,12.83,4.38q5.13,4.38,5.13,12.08Z" transform="translate(-36.85 -912.04)"/><path class="cls-1" d="M708.3,1101.55a35.67,35.67,0,0,0-13.9-13.26q-9-4.9-21.39-4.92a47,47,0,0,0-26,7.49q-11.67,7.48-18.4,21.39t-6.74,32.51q0,18.6,6.74,32.61t18.4,21.5a47,47,0,0,0,26,7.49q12.19,0,21.28-4.92a35.43,35.43,0,0,0,14-13.26v16.68h41.92v-120H708.3Zm-6.31,61.6a20.58,20.58,0,0,1-15.5,6.63,20.31,20.31,0,0,1-15.62-6.74q-6.2-6.74-6.2-18.28,0-11.76,6.2-18.29a21.7,21.7,0,0,1,31.12.11q6.32,6.63,6.31,18.18Q708.3,1156.52,702,1163.15Z" transform="translate(-36.85 -912.04)"/><path class="cls-1" d="M931,1083.8a45,45,0,0,0-23.1,6.1,49.57,49.57,0,0,0-16.9,15.93,42.16,42.16,0,0,0-16.36-16.25A47.76,47.76,0,0,0,851,1083.8a43.87,43.87,0,0,0-20.43,4.6,40.4,40.4,0,0,0-14.43,12.3v-15.83H774.17v120H816.1v-64.38q0-9.63,5.34-15t14.76-5.35q9.19,0,14.44,5.35t5.24,15v64.38H897.8v-64.38q0-9.63,5.34-15t14.55-5.35q9.19,0,14.54,5.35t5.35,15v64.38H979.5v-69.94q0-23.75-12.94-37.43T931,1083.8Z" transform="translate(-36.85 -912.04)"/><path class="cls-1" d="M1102.69,1113.53q-5.36-11.76-17.54-19.46t-28.66-7.7a56.26,56.26,0,0,0-28.76,7.38,51.35,51.35,0,0,0-19.9,21q-7.16,13.57-7.16,31.55t7.16,31.65a51.84,51.84,0,0,0,19.9,21.17,55.55,55.55,0,0,0,28.76,7.49q16.47,0,28.56-7.81a46.88,46.88,0,0,0,17.64-19.78v28.87q0,12.84-5.13,22.25a34.38,34.38,0,0,1-14.12,14.22,42.32,42.32,0,0,1-20.32,4.81q-15.61,0-26.41-7.27a35.92,35.92,0,0,1-14.65-19.46H1007.3a45.34,45.34,0,0,0,18.5,29.08q14.87,10.69,37.32,10.7a58.28,58.28,0,0,0,28.24-6.74,48.1,48.1,0,0,0,19.35-19.14q6.94-12.4,7-28.45V1088.08h-15Zm-5.77,57.75a41.21,41.21,0,0,1-15.72,16.47,42.88,42.88,0,0,1-21.93,5.77,43.72,43.72,0,0,1-22.24-5.67,39.77,39.77,0,0,1-15.51-16.46q-5.67-10.8-5.66-25.13,0-14.55,5.66-25.14A39.47,39.47,0,0,1,1037,1105a44.37,44.37,0,0,1,22.24-5.56,42.88,42.88,0,0,1,21.93,5.77,41.21,41.21,0,0,1,15.72,16.47q5.77,10.69,5.77,24.81T1096.92,1171.28Z" transform="translate(-36.85 -912.04)"/><rect class="cls-1" x="1115.03" y="134.55" width="14.97" height="158.27"/><path class="cls-1" d="M1282.24,1093.75a60.72,60.72,0,0,0-29.84-7.38,60.08,60.08,0,0,0-29.73,7.38,53.87,53.87,0,0,0-21,21q-7.7,13.57-7.7,31.76t7.59,31.76a53.29,53.29,0,0,0,20.75,21,59.48,59.48,0,0,0,29.62,7.38,61.34,61.34,0,0,0,30-7.38,53.24,53.24,0,0,0,21.17-21.07q7.7-13.68,7.7-31.65,0-18.18-7.59-31.76A53,53,0,0,0,1282.24,1093.75Zm7.06,78.71a40.05,40.05,0,0,1-15.94,15.82,44.73,44.73,0,0,1-21.39,5.24,44.1,44.1,0,0,1-21.28-5.24,38.82,38.82,0,0,1-15.61-15.82q-5.88-10.59-5.88-26t5.88-26a38.58,38.58,0,0,1,15.72-15.82,46.26,46.26,0,0,1,42.77,0,39.25,39.25,0,0,1,15.83,15.82q6,10.59,6,26T1289.3,1172.46Z" transform="translate(-36.85 -912.04)"/><path class="cls-1" d="M1428,1093.75a55.74,55.74,0,0,0-28.66-7.38q-16.48,0-28.56,7.7a47.39,47.39,0,0,0-17.86,19.89v-67.37h-14.75v158.27h14.75v-25.67a45.29,45.29,0,0,0,17.65,19.79q12.08,7.59,28.77,7.59a55.18,55.18,0,0,0,28.55-7.49,51.88,51.88,0,0,0,19.89-21.17q7.17-13.68,7.16-31.65t-7.16-31.55A51.59,51.59,0,0,0,1428,1093.75Zm6.09,77.64a39.81,39.81,0,0,1-15.5,16.46,43.76,43.76,0,0,1-22.25,5.67,42.84,42.84,0,0,1-21.92-5.77,41.21,41.21,0,0,1-15.72-16.47q-5.78-10.69-5.78-24.81t5.78-24.81a41.21,41.21,0,0,1,15.72-16.47,42.84,42.84,0,0,1,21.92-5.77,44.41,44.41,0,0,1,22.25,5.56,39.51,39.51,0,0,1,15.5,16.14q5.67,10.59,5.67,25.14Q1439.76,1160.59,1434.09,1171.39Z" transform="translate(-36.85 -912.04)"/><path class="cls-1" d="M1577.71,1113.75a44.84,44.84,0,0,0-17.43-19.68q-12.09-7.69-28.77-7.7a56.3,56.3,0,0,0-28.77,7.38,51.39,51.39,0,0,0-19.89,21q-7.17,13.57-7.16,31.55t7.16,31.65a51.88,51.88,0,0,0,19.89,21.17,55.16,55.16,0,0,0,28.56,7.49q16.68,0,28.76-7.81a46.84,46.84,0,0,0,17.65-19.78v25.88h15V1088.08h-15Zm-5.78,57.53a41.21,41.21,0,0,1-15.72,16.47,42.84,42.84,0,0,1-21.92,5.77,43.7,43.7,0,0,1-22.24-5.67,39.77,39.77,0,0,1-15.51-16.46q-5.67-10.8-5.67-25.13,0-14.55,5.67-25.14a39.47,39.47,0,0,1,15.51-16.14,44.34,44.34,0,0,1,22.24-5.56,42.84,42.84,0,0,1,21.92,5.77,41.21,41.21,0,0,1,15.72,16.47q5.77,10.69,5.78,24.81T1571.93,1171.28Z" transform="translate(-36.85 -912.04)"/><rect class="cls-1" x="1590.05" y="134.55" width="14.97" height="158.27"/><path class="cls-2" d="M170.6,990.83l68.75,68.4a31,31,0,0,0,43.78,0l81.93-81.82V912l-81.93,81.82a31,31,0,0,1-43.78,0L170.6,925.49a31,31,0,0,0-43.12-.6l-90.63,85.3v65.34l90.63-85.3a31,31,0,0,1,43.12.6" transform="translate(-36.85 -912.04)"/><path class="cls-3" d="M239.35,1059.23l-68.75-68.4a31,31,0,0,0-43.12-.6l-90.63,85.3v65.06l90.63-85.3a31,31,0,0,1,43.12.6l68.75,68.41a31,31,0,0,0,43.78,0l81.93-81.82V977.38l-81.93,81.82a31,31,0,0,1-43.78,0" transform="translate(-36.85 -912.04)"/><path class="cls-4" d="M283.13,1124.26a31,31,0,0,1-43.78,0l-68.75-68.41a31,31,0,0,0-43.12-.6l-90.63,85.3v78.48l45.26-43.84H216.18l17.66,17.92a39.65,39.65,0,0,0,57-.56l74.2-78.28v-71.87Z" transform="translate(-36.85 -912.04)"/><path class="cls-2" d="M142.19,1110.33l-24.57,27h62l-22.43-26.65a10,10,0,0,0-15-.3" transform="translate(-36.85 -912.04)"/></svg>