<svg xmlns="http://www.w3.org/2000/svg">
  
  <symbol id="check" viewBox="0 0 76.77 71.15">
    <path d="M1637.79,996.29a32.81,32.81,0,0,0-4.2-18c-7.56-12.78-24.93-16.12-38.45-12.42l-1,.38a33.5,33.5,0,0,0-17.42,8.51,40.55,40.55,0,0,0-9.56,9.34c-12.37,16.54-2.56,37.6,13.78,47a43.91,43.91,0,0,0,13,3.79,37.57,37.57,0,0,0,30.76-7.79l.15-.12.16-.12-.12.09.14-.11,0,0,0,0a35.2,35.2,0,0,0,8.38-9.56C1638.21,1011.69,1639.21,1003.81,1637.79,996.29Zm-74.08,8.32c-2.28-10.11,2.84-20.23,10.29-27a33.68,33.68,0,0,0-5.47,34.78,20.33,20.33,0,0,0,1.78,5.94A34.13,34.13,0,0,1,1563.71,1004.61Zm18.67,24a40.83,40.83,0,0,1-10.28-8.17,21.25,21.25,0,0,1-2.37-5.51,33.74,33.74,0,0,0,14.66,14.51C1583.71,1029.18,1583,1028.91,1582.38,1028.61Zm13.84-16.32-10.86-16.78a2.5,2.5,0,1,1,4.19-2.72l8.85,13.66,12.73-18.19a2.5,2.5,0,1,1,4.09,2.86l-14.85,21.24a2.5,2.5,0,0,1-2,1.07h0A2.56,2.56,0,0,1,1596.22,1012.29Zm1.08,22.93a41.2,41.2,0,0,0,27.37-8A37.42,37.42,0,0,1,1597.3,1035.22Zm36.93-22.57a57.53,57.53,0,0,0,2.67-9.1A22.36,22.36,0,0,1,1634.23,1012.65Zm-2.08-28.88a36.11,36.11,0,0,1,4.82,18.55,55.79,55.79,0,0,1-3.06,10.87,19.39,19.39,0,0,1-2.12,2.88,35.07,35.07,0,0,1-18.33,14,33.65,33.65,0,0,0-13.64-64.31q1.2-.18,2.4-.3c.47,0,.94,0,1.41,0-.45,0-.89,0-1.33,0a36.54,36.54,0,0,1,23.64,5.44c8.09,5.25,11.67,15,11.66,24.45a36.88,36.88,0,0,0-4.88-11.94,38.46,38.46,0,0,0-29.09-17.94A36.87,36.87,0,0,1,1632.15,983.77Z" transform="translate(-1561.62 -964.42)"></path>
  </symbol>

  <symbol id="linkedin" viewBox="0 0 27 27">
    <path d="M24,0H3A3,3,0,0,0,0,3V24a3,3,0,0,0,3,3H24a3,3,0,0,0,3-3V3A3,3,0,0,0,24,0Zm1,24a1,1,0,0,1-1,1H3a1,1,0,0,1-1-1V3A1,1,0,0,1,3,2H24a1,1,0,0,1,1,1Z"></path>
    <path d="M7.79,5.59A1.79,1.79,0,0,0,6.52,6,1.51,1.51,0,0,0,6,7.19a1.47,1.47,0,0,0,.5,1.13,1.76,1.76,0,0,0,1.27.46A1.76,1.76,0,0,0,9,8.32a1.46,1.46,0,0,0,.49-1.13A1.51,1.51,0,0,0,9,6,1.79,1.79,0,0,0,7.79,5.59Z"></path>
    <rect x="6.3" y="9.78" width="2.95" height="9.63"></rect>
    <path d="M17.26,9.68a3.76,3.76,0,0,0-1.7.37,3.09,3.09,0,0,0-1.21,1V9.78h-3v9.63h3V14.18a2.09,2.09,0,0,1,.5-1.5,1.76,1.76,0,0,1,1.34-.53,1.77,1.77,0,0,1,1.35.53,2.14,2.14,0,0,1,.5,1.5v5.23H21V13.79a4.31,4.31,0,0,0-1-3A3.52,3.52,0,0,0,17.26,9.68Z"></path>
  </symbol>
  
</svg>