<svg xmlns="http://www.w3.org/2000/svg">
  
  <symbol id="check" viewBox="0 0 76.77 71.15">
    <path d="M1637.79,996.29a32.81,32.81,0,0,0-4.2-18c-7.56-12.78-24.93-16.12-38.45-12.42l-1,.38a33.5,33.5,0,0,0-17.42,8.51,40.55,40.55,0,0,0-9.56,9.34c-12.37,16.54-2.56,37.6,13.78,47a43.91,43.91,0,0,0,13,3.79,37.57,37.57,0,0,0,30.76-7.79l.15-.12.16-.12-.12.09.14-.11,0,0,0,0a35.2,35.2,0,0,0,8.38-9.56C1638.21,1011.69,1639.21,1003.81,1637.79,996.29Zm-74.08,8.32c-2.28-10.11,2.84-20.23,10.29-27a33.68,33.68,0,0,0-5.47,34.78,20.33,20.33,0,0,0,1.78,5.94A34.13,34.13,0,0,1,1563.71,1004.61Zm18.67,24a40.83,40.83,0,0,1-10.28-8.17,21.25,21.25,0,0,1-2.37-5.51,33.74,33.74,0,0,0,14.66,14.51C1583.71,1029.18,1583,1028.91,1582.38,1028.61Zm13.84-16.32-10.86-16.78a2.5,2.5,0,1,1,4.19-2.72l8.85,13.66,12.73-18.19a2.5,2.5,0,1,1,4.09,2.86l-14.85,21.24a2.5,2.5,0,0,1-2,1.07h0A2.56,2.56,0,0,1,1596.22,1012.29Zm1.08,22.93a41.2,41.2,0,0,0,27.37-8A37.42,37.42,0,0,1,1597.3,1035.22Zm36.93-22.57a57.53,57.53,0,0,0,2.67-9.1A22.36,22.36,0,0,1,1634.23,1012.65Zm-2.08-28.88a36.11,36.11,0,0,1,4.82,18.55,55.79,55.79,0,0,1-3.06,10.87,19.39,19.39,0,0,1-2.12,2.88,35.07,35.07,0,0,1-18.33,14,33.65,33.65,0,0,0-13.64-64.31q1.2-.18,2.4-.3c.47,0,.94,0,1.41,0-.45,0-.89,0-1.33,0a36.54,36.54,0,0,1,23.64,5.44c8.09,5.25,11.67,15,11.66,24.45a36.88,36.88,0,0,0-4.88-11.94,38.46,38.46,0,0,0-29.09-17.94A36.87,36.87,0,0,1,1632.15,983.77Z" transform="translate(-1561.62 -964.42)"></path>
  </symbol>

  <symbol id="linkedin" viewBox="0 0 27 27">
    <path d="M24,0H3A3,3,0,0,0,0,3V24a3,3,0,0,0,3,3H24a3,3,0,0,0,3-3V3A3,3,0,0,0,24,0Zm1,24a1,1,0,0,1-1,1H3a1,1,0,0,1-1-1V3A1,1,0,0,1,3,2H24a1,1,0,0,1,1,1Z"></path>
    <path d="M7.79,5.59A1.79,1.79,0,0,0,6.52,6,1.51,1.51,0,0,0,6,7.19a1.47,1.47,0,0,0,.5,1.13,1.76,1.76,0,0,0,1.27.46A1.76,1.76,0,0,0,9,8.32a1.46,1.46,0,0,0,.49-1.13A1.51,1.51,0,0,0,9,6,1.79,1.79,0,0,0,7.79,5.59Z"></path>
    <rect x="6.3" y="9.78" width="2.95" height="9.63"></rect>
    <path d="M17.26,9.68a3.76,3.76,0,0,0-1.7.37,3.09,3.09,0,0,0-1.21,1V9.78h-3v9.63h3V14.18a2.09,2.09,0,0,1,.5-1.5,1.76,1.76,0,0,1,1.34-.53,1.77,1.77,0,0,1,1.35.53,2.14,2.14,0,0,1,.5,1.5v5.23H21V13.79a4.31,4.31,0,0,0-1-3A3.52,3.52,0,0,0,17.26,9.68Z"></path>
  </symbol>
  
  <symbol id="arrow" viewBox="0 0 60.17 23.28">
    <defs></defs>
    <path d="M1147.5,421.56a1.52,1.52,0,0,0-.71,1.28v8.64h-35.12a1.5,1.5,0,0,0,0,3h35.12v8.64a1.51,1.51,0,0,0,2.16,1.35l20.56-10.15a1.5,1.5,0,0,0,.84-1.34,1.52,1.52,0,0,0-.84-1.35L1149,421.49A1.5,1.5,0,0,0,1147.5,421.56Zm2.29,12.92h12.63l-12.63,6.23Zm12.63-3h-12.63v-6.23Z" transform="translate(-1110.17 -421.34)"></path>
  </symbol>

  <symbol id="model-1" viewBox="0 0 484.33 480.73">
    <defs></defs>
    <path d="M1782.39,973.71a7,7,0,0,1-2.56-.49l-52.17-20.76a6.91,6.91,0,0,1-.32-12.72,21.95,21.95,0,0,0-1-40.36h0a22,22,0,0,0-28.56,12.27,21.23,21.23,0,0,0,0,16.25,6.92,6.92,0,0,1-8.91,9.15l-52.37-20.81a6.92,6.92,0,0,1-3.88-9h0l16.14-40.58a35.81,35.81,0,1,1,24.61-62L1689.51,764a6.92,6.92,0,0,1,9-3.87h0l130.71,52a20.56,20.56,0,0,1,11.5,26.66L1788.83,969.3A6.91,6.91,0,0,1,1782.39,973.71Zm-38.06-29.49,34.17,13.58,49.34-124.14a6.79,6.79,0,0,0-3.74-8.69l-124.28-49.42-18.18,45.83a6.91,6.91,0,0,1-12.74.29,22,22,0,1,0-11.72,29.49,6.92,6.92,0,0,1,9.07,9L1648,905.9l34.26,13.63a35.88,35.88,0,1,1,62.07,24.67Z" transform="translate(-1357.83 -759.63)"></path>
    <path d="M1758.44,1043.39a6.92,6.92,0,0,1-.06-13.84h.06a6.92,6.92,0,0,1,0,13.84Z" transform="translate(-1357.83 -759.63)"></path>
    <path d="M1686.68,1043.39a6.92,6.92,0,0,1-.07-13.84h.07a6.92,6.92,0,0,1,0,13.84Z" transform="translate(-1357.83 -759.63)"></path>
    <path d="M1686.61,1043.43a7,7,0,1,1,2.77-.59A6.76,6.76,0,0,1,1686.61,1043.43Z" transform="translate(-1357.83 -759.63)"></path>
    <path d="M1740.93,1240.37H1382.24a24.41,24.41,0,0,1-24.41-24.35V857.27A24.38,24.38,0,0,1,1382.24,833h179.27a6.92,6.92,0,0,1,6.92,6.92v71.73a6.92,6.92,0,0,1-11.76,5,29.93,29.93,0,1,0,0,43.25,6.92,6.92,0,0,1,11.76,5v64.75h51.83a43.86,43.86,0,1,1,79.41,0h58.61a6.92,6.92,0,0,1,6.92,6.92V1216a24.34,24.34,0,0,1-24.27,24.35ZM1382.24,846.84a10.52,10.52,0,0,0-10.57,10.43V1216a10.55,10.55,0,0,0,10.57,10.51h358.69a10.49,10.49,0,0,0,10.43-10.51V1043.39h-64.68a6.92,6.92,0,0,1-5-11.7A29.95,29.95,0,1,0,1630,1011a29,29,0,0,0,8.31,20.58,6.92,6.92,0,0,1-4.92,11.76h-71.9a6.92,6.92,0,0,1-6.92-6.92V977.86a43.78,43.78,0,1,1,0-79.32v-51.7Z" transform="translate(-1357.83 -759.63)"></path>
    <path d="M1561.58,1115.24a6.92,6.92,0,0,1-6.92-6.92v-71.77a6.92,6.92,0,0,1,13.84-.08v71.81a6.92,6.92,0,0,1-6.88,7Z" transform="translate(-1357.83 -759.63)"></path>
    <path d="M1561.63,1240.09a6.92,6.92,0,0,1-6.92-6.92v-71.85a6.92,6.92,0,0,1,13.84,0v71.85a6.92,6.92,0,0,1-6.92,6.92Z" transform="translate(-1357.83 -759.63)"></path>
    <path d="M1561.58,1043.39H1490a6.92,6.92,0,0,1,0-13.84h71.59a6.92,6.92,0,0,1,0,13.84Z" transform="translate(-1357.83 -759.63)"></path>
    <path d="M1436.81,1043.43H1365a6.92,6.92,0,0,1,0-13.84h71.86a6.92,6.92,0,0,1,0,13.84Z" transform="translate(-1357.83 -759.63)"></path>
    <path d="M1463.26,1105.92a43.75,43.75,0,0,1-31.39-74.23,6.92,6.92,0,0,1,9.92,9.65,29.94,29.94,0,1,0,51.45,20.8,29.48,29.48,0,0,0-8.37-20.76,6.92,6.92,0,1,1,9.47-10.08,4.89,4.89,0,0,1,.39.4,43.22,43.22,0,0,1,12.35,30.48,43.86,43.86,0,0,1-43.82,43.74Z" transform="translate(-1357.83 -759.63)"></path>
    <path d="M1587.27,1178.72a43.67,43.67,0,0,1-30.45-12.36,6.92,6.92,0,0,1,9.35-10.21l.26.25a29.91,29.91,0,1,0,.25-43.33,6.92,6.92,0,0,1-12-4.69v-.06a6.93,6.93,0,0,1,2.11-5,43.82,43.82,0,1,1,30.45,75.38Z" transform="translate(-1357.83 -759.63)"></path>
  </symbol>

  <symbol id="model-2" viewBox="0 0 464 464">
    <defs></defs>
    <g id="_17_Group_Idea">
      <path d="M1472,1048a8,8,0,0,0,8-8,56,56,0,0,0-32.32-50.67,32,32,0,1,0-47.36,0A56,56,0,0,0,1368,1040a8,8,0,0,0,8,8Zm-64-80a16,16,0,1,1,16,16A16,16,0,0,1,1408,968Zm16,32a40.06,40.06,0,0,1,39.2,32h-78.4A40.06,40.06,0,0,1,1424,1000Z" transform="translate(-1368 -768)"></path>
      <path d="M1600,1088a32,32,0,1,0,32,32A32,32,0,0,0,1600,1088Zm0,48a16,16,0,1,1,16-16A16,16,0,0,1,1600,1136Z" transform="translate(-1368 -768)"></path>
      <path d="M1799.68,989.33a32,32,0,1,0-47.36,0A56,56,0,0,0,1720,1040a8,8,0,0,0,8,8h96a8,8,0,0,0,8-8A56,56,0,0,0,1799.68,989.33ZM1760,968a16,16,0,1,1,16,16A16,16,0,0,1,1760,968Zm-23.2,64a40,40,0,0,1,78.4,0Z" transform="translate(-1368 -768)"></path>
      <path d="M1424,1088a24,24,0,1,0-24,24A24,24,0,0,0,1424,1088Zm-24,8a8,8,0,1,1,8-8A8,8,0,0,1,1400,1096Z" transform="translate(-1368 -768)"></path>
      <path d="M1432,872a24,24,0,1,0-24-24A24,24,0,0,0,1432,872Zm0-32a8,8,0,1,1-8,8A8,8,0,0,1,1432,840Z" transform="translate(-1368 -768)"></path>
      <path d="M1768,872a24,24,0,1,0-24-24A24,24,0,0,0,1768,872Zm0-32a8,8,0,1,1-8,8A8,8,0,0,1,1768,840Z" transform="translate(-1368 -768)"></path>
      <path d="M1800,1064a24,24,0,1,0,24,24A24,24,0,0,0,1800,1064Zm0,32a8,8,0,1,1,8-8A8,8,0,0,1,1800,1096Z" transform="translate(-1368 -768)"></path>
      <path d="M1536,992a16,16,0,0,0,16,16v16a16,16,0,0,0,9.38,14.53l5.34,21.34a16,16,0,0,0,15.53,12.13h35.5a16,16,0,0,0,15.53-12.13l5.34-21.34A16,16,0,0,0,1648,1024v-16a16,16,0,0,0,16-16c0-14.81,7.94-24.5,18-36.8,13.36-16.3,30-36.6,30-75.2a112,112,0,0,0-224,0c0,38.61,16.64,58.91,30,75.2C1528.06,967.5,1536,977.18,1536,992Zm32-80h-8a8,8,0,1,1,8-8Zm16,16h32v64h-32Zm33.75,128h-35.5l-4-16h43.5Zm14.25-32h-64v-16h64Zm-32-240a96.1,96.1,0,0,1,96,96c0,32.88-13.41,49.26-26.4,65.09-10.61,13-21.6,26.4-21.6,46.91h-16V928h8a24,24,0,1,0-24-24v8h-32v-8a24,24,0,1,0-24,24h8v64h-16c0-20.5-11-33.91-21.6-46.87-13-15.87-26.4-32.24-26.4-65.13A96.1,96.1,0,0,1,1600,784Zm32,128v-8a8,8,0,1,1,8,8Z" transform="translate(-1368 -768)"></path>
      <path d="M1517.6,1149.74a48,48,0,1,0-59.14,0A80.08,80.08,0,0,0,1408,1224a8,8,0,0,0,8,8h144a8,8,0,0,0,8-8A80.07,80.07,0,0,0,1517.6,1149.74ZM1456,1112a32,32,0,1,1,32,32A32,32,0,0,1,1456,1112Zm1.12,104a31.76,31.76,0,0,1,8.26-14.62,8,8,0,1,0-11.12-11.5l-.2.19A47.57,47.57,0,0,0,1440.7,1216h-16.2a64,64,0,0,1,127,0Z" transform="translate(-1368 -768)"></path>
      <path d="M1741.6,1149.74a48,48,0,1,0-59.14,0A80.08,80.08,0,0,0,1632,1224a8,8,0,0,0,8,8h144a8,8,0,0,0,8-8A80.07,80.07,0,0,0,1741.6,1149.74ZM1680,1112a32,32,0,1,1,32,32A32,32,0,0,1,1680,1112Zm79.3,104a47.66,47.66,0,0,0-13.38-25.93,8,8,0,0,0-11.66,11,3.06,3.06,0,0,0,.36.36,31.73,31.73,0,0,1,8.25,14.62h-94.4a64,64,0,0,1,127,0Z" transform="translate(-1368 -768)"></path>
    </g>
  </symbol>

  <symbol id="model-3" viewBox="0 0 477.46 368.44">
    <defs></defs>
    <circle cx="414.97" cy="322.99" r="6.57"></circle>
    <path d="M489.88,478.05h-86V326.91h71.73a6.66,6.66,0,0,0,6.58-6.57,7.07,7.07,0,0,0-6.58-6.57H403.91V292.41a6.57,6.57,0,1,0-13.14,0v21.36H351.34a6.66,6.66,0,0,0-6.57,6.57v19.17h-20l-40-35.05a6.25,6.25,0,0,0-4.38-1.64H170.3a6.33,6.33,0,0,0-6.57,6.57,65.51,65.51,0,0,0,8.76,30.67h-8.21s-29.57-45.45-30.67-47.1c-9.85-14.23-26.83-25.19-44.9-19.16l-10.95,3.83a6.61,6.61,0,0,0-3.83,3.83,6.49,6.49,0,0,0,.54,5.48l2.19,3.28c-15.33-7.66-34.5-8.76-47.09,3.84l-8.21,8.76c-4.38,4.93-1.65,8.21,1.09,9.86l98,67.35s156.06,58,157.16,58h66.59v11.5c0,3.84,3.29,6.58,7.12,6.58h38.88v29a6.66,6.66,0,0,0,6.57,6.57h93.09a6.66,6.66,0,0,0,6.57-6.57C497,481.33,493.72,478.05,489.88,478.05ZM99.11,285.3c8.77,0,17,6,23,13.69,1.1,1.64,18.07,27.92,18.07,27.92L99.66,303.37,90.9,286.94S97.47,285.3,99.11,285.3ZM343.67,424.39H278.18L127.59,368.53,36.69,306.1l2.19-2.19c9.31-9.3,25.19-6,36.14,1.65l81.59,47.09a7.78,7.78,0,0,0,3.29,1.1h98a6.66,6.66,0,0,0,6.57-6.58,7.07,7.07,0,0,0-6.57-6.57H196C185.63,339,178,327.46,176.87,317.06h99.66l40,35a6.2,6.2,0,0,0,4.38,1.65h22.78Zm46.55,17.52H357.91v-115h32.31Z" transform="translate(-19.06 -123.3)"></path>
    <path d="M134.58,239.4l.19-42.35c0-9.3-5.32-16.94-14.62-20.26a168.94,168.94,0,0,0-18.6-4,27.59,27.59,0,0,0,10.3-21.59h0a27.77,27.77,0,0,0-7.3-18.71c-.3-.33-.61-.66-.93-1a28.86,28.86,0,0,0-4.13-3.42,27.57,27.57,0,0,0-31.09,0,28.4,28.4,0,0,0-4.14,3.42c-.32.32-.63.65-.93,1A27.76,27.76,0,0,0,56,151.21h0A27.58,27.58,0,0,0,66.33,172.8c-3.15.5-6.23,1.08-9.3,1.75s-6.14,1.41-9.3,2.24a22.26,22.26,0,0,0-14.62,20.26L33,238.63c13.67,12.86,30.72,20.88,51,20.88C103.8,259.51,121,251.83,134.58,239.4ZM83.53,136.61c8.24.29,14.68,6.68,14.68,14.6a14.6,14.6,0,1,1-14.68-14.6ZM46.42,197.56A9,9,0,0,1,52,189.83a111.57,111.57,0,0,1,64.25,0,8.26,8.26,0,0,1,5.54,7.7v36.59a63.38,63.38,0,0,1-37.53,12.41,64.8,64.8,0,0,1-37.85-12.75Z" transform="translate(-19.06 -123.3)"></path>
    <path d="M150.12,244.46a71.82,71.82,0,0,0,45.69,16.29,73.09,73.09,0,0,0,45.37-15.68q2.72-2.1,5.27-4.43l.18-42.35h0a20.88,20.88,0,0,0-4.8-13.65A22.61,22.61,0,0,0,232,178c-4.49-1.25-9.16-2.31-13.88-3.18-1.57-.29-3.15-.56-4.73-.81a27.57,27.57,0,0,0,10.3-21.59,27.86,27.86,0,0,0-9.19-20.61c-.66-.61-1.36-1.18-2.07-1.72a28.06,28.06,0,0,0-3.4-2.18,26.2,26.2,0,0,0-2.44-1.19c-.41-.17-.83-.34-1.26-.5a27.53,27.53,0,0,0-9.54-1.71h0a27.75,27.75,0,0,0-18.71,7.3c-.34.3-.66.61-1,.92a29.5,29.5,0,0,0-3.42,4.14A27.7,27.7,0,0,0,178.2,174q-2.37.38-4.68.81c-4.64.87-9.19,1.93-13.92,3.18a20.91,20.91,0,0,0-4.53,2.21c-.55.35-1.07.74-1.57,1.13a22.2,22.2,0,0,0-3.33,3.24,22.78,22.78,0,0,0-1.9,2.68,24.43,24.43,0,0,0-1.49,2.93c-.27.62-.49,1.26-.7,1.91a22.84,22.84,0,0,0-1.1,6.16l-.15,41.43v.14h0c.86.81,1.73,1.59,2.61,2.36S149.21,243.73,150.12,244.46ZM195.4,137.85c8.23.28,14.67,6.68,14.67,14.6a14.6,14.6,0,1,1-14.67-14.6Zm-37.12,61a9,9,0,0,1,5.59-7.73,111.57,111.57,0,0,1,64.25,0,8.24,8.24,0,0,1,5.54,7.7v36.58a63.31,63.31,0,0,1-37.52,12.41A64.82,64.82,0,0,1,158.28,235Z" transform="translate(-19.06 -123.3)"></path>
    <path d="M307.67,259.51c19.86,0,37.05-7.68,50.64-20.11l.19-42.35c0-9.3-5.31-16.94-14.62-20.26-3-.83-6.06-1.58-9.17-2.24s-6.27-1.25-9.43-1.75a25.11,25.11,0,0,0,2.25-2l.06-.06a28.07,28.07,0,0,0,2.65-3.11l.51-.73a28.21,28.21,0,0,0,1.71-2.87,29.89,29.89,0,0,0,1.37-3.11c.11-.29.21-.58.31-.87a27.89,27.89,0,0,0-20.88-36.17,27.19,27.19,0,0,0-5.59-.58,27.65,27.65,0,0,0-15.54,4.8,28.94,28.94,0,0,0-4.14,3.42c-.32.32-.63.65-.93,1a27.76,27.76,0,0,0-7.29,18.71h0a27.56,27.56,0,0,0,10.3,21.59c-3.16.5-6.23,1.08-9.31,1.75s-6.14,1.41-9.3,2.24a21.2,21.2,0,0,0-5.88,3.16,22.7,22.7,0,0,0-8.74,17.1l-.14,41.58c10.26,9.65,22.41,16.57,36.39,19.42A72.09,72.09,0,0,0,307.67,259.51Zm-.41-122.9c8.24.29,14.68,6.68,14.68,14.6a14.6,14.6,0,1,1-14.68-14.6Zm-37.11,60.95a9,9,0,0,1,5.59-7.73,111.57,111.57,0,0,1,64.25,0,8.26,8.26,0,0,1,5.54,7.7v36.59A63.38,63.38,0,0,1,308,246.54a64.8,64.8,0,0,1-37.85-12.75Z" transform="translate(-19.06 -123.3)"></path>
  </symbol>

  <symbol id="problem" viewBox="0 0 512 512">
    <g id="Out_line">
      <path d="M152,240H136a8,8,0,0,0,0,16h16a8,8,0,0,0,0-16Z"></path>
      <path d="M216,256h16a8,8,0,0,0,0-16H216a8,8,0,0,0,0,16Z"></path>
      <path d="M184.41064,282.53027a8,8,0,1,0,15.17872-5.06054l-8-24a8,8,0,1,0-15.17872,5.06054Z"></path>
      <circle cx="144" cy="264" r="8"></circle>
      <circle cx="224" cy="264" r="8"></circle>
      <path d="M176,320h16a8,8,0,0,0,0-16H176a8,8,0,0,0,0,16Z"></path>
      <path d="M294.82617,377.832a117.26358,117.26358,0,0,0-55.10473-17.60156,23.89529,23.89529,0,0,0-6.27759-8.10742l-11.57044-9.64185A80.24783,80.24783,0,0,0,262.37354,288H264a31.98859,31.98859,0,0,0,16-59.69482v-24.9917A35.31326,35.31326,0,0,0,244.68652,168h-.8374a17.94584,17.94584,0,0,0-5.26367-12.72852l-5.12988-5.12988a75.59861,75.59861,0,0,0-106.91114,0l-21.17138,21.17188a1.94211,1.94211,0,0,1-2.74561,0A17.94137,17.94137,0,0,0,72,184v7.0293a48.65073,48.65073,0,0,0,14.34326,34.62793c.77442.77441,1.57752,1.5083,2.39331,2.22387A31.996,31.996,0,0,0,104,288h1.62646a80.24989,80.24989,0,0,0,39.27784,53.79883,22.68107,22.68107,0,0,0-7.702,18.13281c-.40027.0293-.79846.06836-1.20471.06836h-.646A117.31625,117.31625,0,0,0,21.53809,448.8623,185.66081,185.66081,0,0,0,16,493.84961V496H32v-2.15039a169.63977,169.63977,0,0,1,5.06055-41.10645A100.78814,100.78814,0,0,1,80,392.48975V432a7.99988,7.99988,0,0,0,10.97119,7.42773l10.64453-4.25781L73.44629,475.41211l13.10742,9.17578,51.81445-74.02051,49.4961,28.28418a7.99833,7.99833,0,0,1,2.56347,11.56348l-23.30517,32.9668,13.06543,9.23632,23.30517-32.96679a23.9591,23.9591,0,0,0-.73071-28.66822L237.27979,384.96a23.92461,23.92461,0,0,0,4.07836-8.57666c1.46729.12647,2.92884.29077,4.38623.48071l-16.14282,69.95142A219.06764,219.06764,0,0,0,224,496h16a203.04474,203.04474,0,0,1,5.19141-45.58691l5.01147-21.71582,26.82593,10.73046A7.99957,7.99957,0,0,0,288,432V392.48975a100.78814,100.78814,0,0,1,42.93945,60.25341A169.63977,169.63977,0,0,1,336,493.84961V496h16v-2.15039a185.66081,185.66081,0,0,0-5.53809-44.98731A116.75468,116.75468,0,0,0,294.82617,377.832ZM264,272V240a16,16,0,0,1,0,32ZM88,184a1.94147,1.94147,0,0,1,3.31445-1.37207,17.96225,17.96225,0,0,0,25.37159,0l21.17187-21.17188a59.59737,59.59737,0,0,1,84.28418,0l5.12988,5.12989a2.00191,2.00191,0,0,1,0,2.82812l-8.92871,8.92871a8.00018,8.00018,0,0,0,11.31348,11.31446L235.314,184h9.37256A19.31415,19.31415,0,0,1,264,203.31348V224H253.25488a23.83777,23.83777,0,0,1-16.9707-7.03027l-22.62744-22.627a8.00182,8.00182,0,0,0-11.31348,0A100.5903,100.5903,0,0,1,130.74512,224H120.9707A32.971,32.971,0,0,1,88,191.0293Zm0,72a16.01833,16.01833,0,0,1,16-16v32A16.01833,16.01833,0,0,1,88,256Zm32,16V239.97632c.32385.00635.64587.02368.9707.02368h9.77442a116.39328,116.39328,0,0,0,77.0664-28.875l17.15869,17.1582A39.685,39.685,0,0,0,248,239.64917V272a64.12048,64.12048,0,0,1-39.91162,59.30713,23.98334,23.98334,0,0,0-32.62158,7.0708l-1.68555,2.52832-1.353-.90234a22.93736,22.93736,0,0,0-4.78637-2.436,7.9954,7.9954,0,0,0-4.97779-5.20849A64.11266,64.11266,0,0,1,120,272Zm15.99756,104a32.08733,32.08733,0,0,0,6.70276-.71167l.06823.13647-13.37011,20.05567-2.14112,3.05859-5.00256-21.67822A101.46763,101.46763,0,0,1,135.35156,376ZM96,383.96777a101.08685,101.08685,0,0,1,10.599-3.79492l7.55725,32.74878L96,420.18359Zm128.48-8.60742-34.64246,46.18994-42.42688-24.24438,11.24561-16.86841a7.999,7.999,0,0,0,.499-8.01562l-5.28076-10.56153a6.67886,6.67886,0,0,1,9.67822-8.54394l8.00977,5.33984a7.99991,7.99991,0,0,0,11.09375-2.21875l6.12305-9.18457a8.00029,8.00029,0,0,1,11.77832-1.708l22.64355,18.86914A7.997,7.997,0,0,1,224.48,375.36035Zm29.36353,37.56079,7.55822-32.75195A101.33249,101.33249,0,0,1,272,383.96777v36.21582Z"></path>
      <path d="M404,16H380a92.02348,92.02348,0,0,0-79.73877,137.918L288.41064,189.4707A7.99946,7.99946,0,0,0,295.99951,200a8.0981,8.0981,0,0,0,1.31543-.1084l45.72119-7.61816A91.27669,91.27669,0,0,0,380,200h24a92,92,0,0,0,0-184Zm53.74316,145.74316A75.5064,75.5064,0,0,1,404,184H380a75.40431,75.40431,0,0,1-32.45312-7.25293,8.007,8.007,0,0,0-4.73194-.6582L307.791,181.9248l8.81836-26.45605a7.99738,7.99738,0,0,0-.83643-6.81836A76.00436,76.00436,0,0,1,380,32h24a76.00431,76.00431,0,0,1,53.74316,129.74316Z"></path>
      <path d="M392,43.71582a36.04845,36.04845,0,0,0-25.65674,10.627c-.04785.04785-.09521.09668-.14209.14551l-3.73926,3.93457A22.14229,22.14229,0,0,0,393.855,89.65723l3.80176-3.80176A8.00018,8.00018,0,0,0,386.34326,74.541l-3.80176,3.80175a6.14164,6.14164,0,0,1-9.45361-.93554,6.15817,6.15817,0,0,1,.76709-7.75c.04785-.04785.09522-.09668.14209-.14551l3.72607-3.9209a20.2842,20.2842,0,0,1,28.62012,28.752l-8.687,8.6875A46.32292,46.32292,0,0,0,384,136a8,8,0,0,0,16,0,30.427,30.427,0,0,1,8.97021-21.65625l8.68653-8.68652A36.28418,36.28418,0,0,0,392,43.71582Z"></path>
      <circle cx="392" cy="160" r="8"></circle>
    </g>
  </symbol>
  
</svg>