<svg id="Режим_изоляции" data-name="Режим изоляции" xmlns="http://www.w3.org/2000/svg" viewBox="0 0 16.59 20.97"><defs><style>.cls-1{fill:#eebf45;}</style></defs><path class="cls-1" d="M1601.87,1009l-.21-2a1.5,1.5,0,0,1,.41-1.34l5.8-4.19c.76-.55.43-2.51-.46-2.74l-6.41-1.63a1.32,1.32,0,0,1-.79-1l-1.66-5.62c-.39-1.31-1.51-1.33-1.67,0l-.81,6.63a1.26,1.26,0,0,1-.37.82l-3.6,2.93c-.72.59-.39,2.47.48,2.71l5.19,1.44a1.21,1.21,0,0,1,.68.69l1.85,4.09C1600.88,1011,1602,1010.51,1601.87,1009Z" transform="translate(-1591.71 -989.51)"/></svg>