<svg id="Режим_изоляции" data-name="Режим изоляции" xmlns="http://www.w3.org/2000/svg" viewBox="0 0 272.01 264.54"><defs><style>.cls-1{fill:#e16e3b;}</style></defs><path class="cls-1" d="M1544.31,882.25a1.51,1.51,0,0,0,.12,2.12,1.54,1.54,0,0,0,1,.38,1.48,1.48,0,0,0,1.12-.5l10.67-12a1.51,1.51,0,0,0-1-2.5l-16.3-.72a1.5,1.5,0,1,0-.13,3l8.18.36C1502.09,890.36,1468.2,935,1464,984.09c5.44-48.58,40.09-92.05,86.08-108.3Z" transform="translate(-1464 -867.73)"/><path class="cls-1" d="M1508.59,1095.88l8.64,3.85a1.5,1.5,0,1,0,1.23-2.74l-14.64-6.52a1.5,1.5,0,0,0-2.06,1.76l.36,1.33a2,2,0,0,0,.5,2.15l.11.1L1506,1108a1.5,1.5,0,0,0,1.45,1.1,1.31,1.31,0,0,0,.39,0,1.5,1.5,0,0,0,1.06-1.84l-2.07-7.61c55,48.27,142,42.62,189.58-13.85C1648.39,1140.78,1561.83,1145.28,1508.59,1095.88Z" transform="translate(-1464 -867.73)"/><path class="cls-1" d="M1735,969.92a1.49,1.49,0,0,0-1.92.89l-3.3,9c-8-55.8-53.45-103-109.37-112.08,54.23,10.07,97.89,56.33,105.3,110.65L1722,972.1a1.5,1.5,0,1,0-2.58,1.52l7.06,11.92c0,.34,0,.68.08,1a2,2,0,0,0,4-.09l5.36-14.63A1.49,1.49,0,0,0,1735,969.92Z" transform="translate(-1464 -867.73)"/><path class="cls-1" d="M1608.35,975.51a1.27,1.27,0,0,0-.57-1.7,27.52,27.52,0,0,0-12.37-2.89,27.79,27.79,0,1,0,23.82,13.44,1.27,1.27,0,1,0-2.17,1.31,25.26,25.26,0,1,1-10.41-9.59A1.27,1.27,0,0,0,1608.35,975.51Z" transform="translate(-1464 -867.73)"/><path class="cls-1" d="M1594.93,987a11.35,11.35,0,0,1,3,.39,1.27,1.27,0,0,0,.66-2.45,14.27,14.27,0,0,0-3.62-.47,14,14,0,1,0,13.64,10.68,1.27,1.27,0,0,0-2.46.61,11.52,11.52,0,1,1-11.18-8.76Z" transform="translate(-1464 -867.73)"/><path class="cls-1" d="M1597.58,994.09a5.12,5.12,0,1,0,1.72,1.87l21.83-22.45,8.78.91h.13a1.25,1.25,0,0,0,.91-.38l11.65-12a1.27,1.27,0,0,0,.26-1.36,1.24,1.24,0,0,0-1.13-.79l-9.13-.29v-8.48a1.26,1.26,0,0,0-2.18-.88l-11.32,11.65a1.28,1.28,0,0,0-.36,1l.61,8.82Zm-2.82,6.92a2.62,2.62,0,1,1,2.62-2.61A2.61,2.61,0,0,1,1594.76,1001Zm35.31-46.74v6.59a1.28,1.28,0,0,0,1.22,1.27l7.48.23-9.21,9.47-7.72-.8-.53-7.75Z" transform="translate(-1464 -867.73)"/><path class="cls-1" d="M1564.45,1027.21l-10.85,10.23a1.27,1.27,0,0,0,.87,2.19,1.24,1.24,0,0,0,.87-.34l10.91-10.29a41.31,41.31,0,0,0,57.44-1l11,11.1a1.23,1.23,0,0,0,.9.38,1.26,1.26,0,0,0,.9-2.16l-11-11.17a41.34,41.34,0,0,0,5.42-47.15,1.27,1.27,0,0,0-2.23,1.21,38.85,38.85,0,1,1-15.11-15.35,1.27,1.27,0,0,0,1.25-2.21,41.38,41.38,0,0,0-50.3,64.57Z" transform="translate(-1464 -867.73)"/></svg>