<svg id="Режим_изоляции" data-name="Режим изоляции" xmlns="http://www.w3.org/2000/svg" viewBox="0 0 464 464"><defs><style>.cls-1{fill:#e16e3b;}</style></defs><g id="_17_Group_Idea" data-name=" 17 Group Idea"><path class="cls-1" d="M1472,1048a8,8,0,0,0,8-8,56,56,0,0,0-32.32-50.67,32,32,0,1,0-47.36,0A56,56,0,0,0,1368,1040a8,8,0,0,0,8,8Zm-64-80a16,16,0,1,1,16,16A16,16,0,0,1,1408,968Zm16,32a40.06,40.06,0,0,1,39.2,32h-78.4A40.06,40.06,0,0,1,1424,1000Z" transform="translate(-1368 -768)"/><path class="cls-1" d="M1600,1088a32,32,0,1,0,32,32A32,32,0,0,0,1600,1088Zm0,48a16,16,0,1,1,16-16A16,16,0,0,1,1600,1136Z" transform="translate(-1368 -768)"/><path class="cls-1" d="M1799.68,989.33a32,32,0,1,0-47.36,0A56,56,0,0,0,1720,1040a8,8,0,0,0,8,8h96a8,8,0,0,0,8-8A56,56,0,0,0,1799.68,989.33ZM1760,968a16,16,0,1,1,16,16A16,16,0,0,1,1760,968Zm-23.2,64a40,40,0,0,1,78.4,0Z" transform="translate(-1368 -768)"/><path class="cls-1" d="M1424,1088a24,24,0,1,0-24,24A24,24,0,0,0,1424,1088Zm-24,8a8,8,0,1,1,8-8A8,8,0,0,1,1400,1096Z" transform="translate(-1368 -768)"/><path class="cls-1" d="M1432,872a24,24,0,1,0-24-24A24,24,0,0,0,1432,872Zm0-32a8,8,0,1,1-8,8A8,8,0,0,1,1432,840Z" transform="translate(-1368 -768)"/><path class="cls-1" d="M1768,872a24,24,0,1,0-24-24A24,24,0,0,0,1768,872Zm0-32a8,8,0,1,1-8,8A8,8,0,0,1,1768,840Z" transform="translate(-1368 -768)"/><path class="cls-1" d="M1800,1064a24,24,0,1,0,24,24A24,24,0,0,0,1800,1064Zm0,32a8,8,0,1,1,8-8A8,8,0,0,1,1800,1096Z" transform="translate(-1368 -768)"/><path class="cls-1" d="M1536,992a16,16,0,0,0,16,16v16a16,16,0,0,0,9.38,14.53l5.34,21.34a16,16,0,0,0,15.53,12.13h35.5a16,16,0,0,0,15.53-12.13l5.34-21.34A16,16,0,0,0,1648,1024v-16a16,16,0,0,0,16-16c0-14.81,7.94-24.5,18-36.8,13.36-16.3,30-36.6,30-75.2a112,112,0,0,0-224,0c0,38.61,16.64,58.91,30,75.2C1528.06,967.5,1536,977.18,1536,992Zm32-80h-8a8,8,0,1,1,8-8Zm16,16h32v64h-32Zm33.75,128h-35.5l-4-16h43.5Zm14.25-32h-64v-16h64Zm-32-240a96.1,96.1,0,0,1,96,96c0,32.88-13.41,49.26-26.4,65.09-10.61,13-21.6,26.4-21.6,46.91h-16V928h8a24,24,0,1,0-24-24v8h-32v-8a24,24,0,1,0-24,24h8v64h-16c0-20.5-11-33.91-21.6-46.87-13-15.87-26.4-32.24-26.4-65.13A96.1,96.1,0,0,1,1600,784Zm32,128v-8a8,8,0,1,1,8,8Z" transform="translate(-1368 -768)"/><path class="cls-1" d="M1517.6,1149.74a48,48,0,1,0-59.14,0A80.08,80.08,0,0,0,1408,1224a8,8,0,0,0,8,8h144a8,8,0,0,0,8-8A80.07,80.07,0,0,0,1517.6,1149.74ZM1456,1112a32,32,0,1,1,32,32A32,32,0,0,1,1456,1112Zm1.12,104a31.76,31.76,0,0,1,8.26-14.62,8,8,0,1,0-11.12-11.5l-.2.19A47.57,47.57,0,0,0,1440.7,1216h-16.2a64,64,0,0,1,127,0Z" transform="translate(-1368 -768)"/><path class="cls-1" d="M1741.6,1149.74a48,48,0,1,0-59.14,0A80.08,80.08,0,0,0,1632,1224a8,8,0,0,0,8,8h144a8,8,0,0,0,8-8A80.07,80.07,0,0,0,1741.6,1149.74ZM1680,1112a32,32,0,1,1,32,32A32,32,0,0,1,1680,1112Zm79.3,104a47.66,47.66,0,0,0-13.38-25.93,8,8,0,0,0-11.66,11,3.06,3.06,0,0,0,.36.36,31.73,31.73,0,0,1,8.25,14.62h-94.4a64,64,0,0,1,127,0Z" transform="translate(-1368 -768)"/></g></svg>