<svg id="Режим_изоляции" data-name="Режим изоляции" xmlns="http://www.w3.org/2000/svg" viewBox="0 0 484.33 480.73"><defs><style>.cls-1{fill:#e16e3b;}</style></defs><path class="cls-1" d="M1782.39,973.71a7,7,0,0,1-2.56-.49l-52.17-20.76a6.91,6.91,0,0,1-.32-12.72,21.95,21.95,0,0,0-1-40.36h0a22,22,0,0,0-28.56,12.27,21.23,21.23,0,0,0,0,16.25,6.92,6.92,0,0,1-8.91,9.15l-52.37-20.81a6.92,6.92,0,0,1-3.88-9h0l16.14-40.58a35.81,35.81,0,1,1,24.61-62L1689.51,764a6.92,6.92,0,0,1,9-3.87h0l130.71,52a20.56,20.56,0,0,1,11.5,26.66L1788.83,969.3A6.91,6.91,0,0,1,1782.39,973.71Zm-38.06-29.49,34.17,13.58,49.34-124.14a6.79,6.79,0,0,0-3.74-8.69l-124.28-49.42-18.18,45.83a6.91,6.91,0,0,1-12.74.29,22,22,0,1,0-11.72,29.49,6.92,6.92,0,0,1,9.07,9L1648,905.9l34.26,13.63a35.88,35.88,0,1,1,62.07,24.67Z" transform="translate(-1357.83 -759.63)"/><path class="cls-1" d="M1758.44,1043.39a6.92,6.92,0,0,1-.06-13.84h.06a6.92,6.92,0,0,1,0,13.84Z" transform="translate(-1357.83 -759.63)"/><path class="cls-1" d="M1686.68,1043.39a6.92,6.92,0,0,1-.07-13.84h.07a6.92,6.92,0,0,1,0,13.84Z" transform="translate(-1357.83 -759.63)"/><path class="cls-1" d="M1686.61,1043.43a7,7,0,1,1,2.77-.59A6.76,6.76,0,0,1,1686.61,1043.43Z" transform="translate(-1357.83 -759.63)"/><path class="cls-1" d="M1740.93,1240.37H1382.24a24.41,24.41,0,0,1-24.41-24.35V857.27A24.38,24.38,0,0,1,1382.24,833h179.27a6.92,6.92,0,0,1,6.92,6.92v71.73a6.92,6.92,0,0,1-11.76,5,29.93,29.93,0,1,0,0,43.25,6.92,6.92,0,0,1,11.76,5v64.75h51.83a43.86,43.86,0,1,1,79.41,0h58.61a6.92,6.92,0,0,1,6.92,6.92V1216a24.34,24.34,0,0,1-24.27,24.35ZM1382.24,846.84a10.52,10.52,0,0,0-10.57,10.43V1216a10.55,10.55,0,0,0,10.57,10.51h358.69a10.49,10.49,0,0,0,10.43-10.51V1043.39h-64.68a6.92,6.92,0,0,1-5-11.7A29.95,29.95,0,1,0,1630,1011a29,29,0,0,0,8.31,20.58,6.92,6.92,0,0,1-4.92,11.76h-71.9a6.92,6.92,0,0,1-6.92-6.92V977.86a43.78,43.78,0,1,1,0-79.32v-51.7Z" transform="translate(-1357.83 -759.63)"/><path class="cls-1" d="M1561.58,1115.24a6.92,6.92,0,0,1-6.92-6.92v-71.77a6.92,6.92,0,0,1,13.84-.08v71.81a6.92,6.92,0,0,1-6.88,7Z" transform="translate(-1357.83 -759.63)"/><path class="cls-1" d="M1561.63,1240.09a6.92,6.92,0,0,1-6.92-6.92v-71.85a6.92,6.92,0,0,1,13.84,0v71.85a6.92,6.92,0,0,1-6.92,6.92Z" transform="translate(-1357.83 -759.63)"/><path class="cls-1" d="M1561.58,1043.39H1490a6.92,6.92,0,0,1,0-13.84h71.59a6.92,6.92,0,0,1,0,13.84Z" transform="translate(-1357.83 -759.63)"/><path class="cls-1" d="M1436.81,1043.43H1365a6.92,6.92,0,0,1,0-13.84h71.86a6.92,6.92,0,0,1,0,13.84Z" transform="translate(-1357.83 -759.63)"/><path class="cls-1" d="M1463.26,1105.92a43.75,43.75,0,0,1-31.39-74.23,6.92,6.92,0,0,1,9.92,9.65,29.94,29.94,0,1,0,51.45,20.8,29.48,29.48,0,0,0-8.37-20.76,6.92,6.92,0,1,1,9.47-10.08,4.89,4.89,0,0,1,.39.4,43.22,43.22,0,0,1,12.35,30.48,43.86,43.86,0,0,1-43.82,43.74Z" transform="translate(-1357.83 -759.63)"/><path class="cls-1" d="M1587.27,1178.72a43.67,43.67,0,0,1-30.45-12.36,6.92,6.92,0,0,1,9.35-10.21l.26.25a29.91,29.91,0,1,0,.25-43.33,6.92,6.92,0,0,1-12-4.69v-.06a6.93,6.93,0,0,1,2.11-5,43.82,43.82,0,1,1,30.45,75.38Z" transform="translate(-1357.83 -759.63)"/></svg>